solid zone0
 facet normal 1 0 0
  outer loop
   vertex 43.7358 5.89167 2.5432
   vertex 43.7358 5.29167 2.5432
   vertex 43.7358 5.29167 2.4932
  endloop
 endfacet
 facet normal 1 0 0
  outer loop
   vertex 43.7358 5.89167 2.5432
   vertex 43.7358 5.29167 2.4932
   vertex 43.7358 5.89167 2.4932
  endloop
 endfacet
 facet normal -0 -1 0
  outer loop
   vertex 43.7358 5.29167 2.5432
   vertex 43.1358 5.29167 2.5432
   vertex 43.1358 5.29167 2.4932
  endloop
 endfacet
 facet normal 0 -1 -0
  outer loop
   vertex 43.7358 5.29167 2.5432
   vertex 43.1358 5.29167 2.4932
   vertex 43.7358 5.29167 2.4932
  endloop
 endfacet
 facet normal -0 1 0
  outer loop
   vertex 43.1358 5.89167 2.5432
   vertex 43.7358 5.89167 2.5432
   vertex 43.7358 5.89167 2.4932
  endloop
 endfacet
 facet normal 0 1 0
  outer loop
   vertex 43.1358 5.89167 2.5432
   vertex 43.7358 5.89167 2.4932
   vertex 43.1358 5.89167 2.4932
  endloop
 endfacet
 facet normal -1 0 0
  outer loop
   vertex 43.1358 5.29167 2.5432
   vertex 43.1358 5.89167 2.5432
   vertex 43.1358 5.89167 2.4932
  endloop
 endfacet
 facet normal -1 0 0
  outer loop
   vertex 43.1358 5.29167 2.5432
   vertex 43.1358 5.89167 2.4932
   vertex 43.1358 5.29167 2.4932
  endloop
 endfacet
endsolid zone0
