solid zone0
 facet normal 1 0 0
  outer loop
   vertex 35.6174 12.7806 2.5432
   vertex 35.6174 12.1806 2.5432
   vertex 35.6174 12.1806 2.4932
  endloop
 endfacet
 facet normal 1 0 0
  outer loop
   vertex 35.6174 12.7806 2.5432
   vertex 35.6174 12.1806 2.4932
   vertex 35.6174 12.7806 2.4932
  endloop
 endfacet
 facet normal -0 -1 0
  outer loop
   vertex 35.6174 12.1806 2.5432
   vertex 35.0174 12.1806 2.5432
   vertex 35.0174 12.1806 2.4932
  endloop
 endfacet
 facet normal 0 -1 -0
  outer loop
   vertex 35.6174 12.1806 2.5432
   vertex 35.0174 12.1806 2.4932
   vertex 35.6174 12.1806 2.4932
  endloop
 endfacet
 facet normal -0 1 0
  outer loop
   vertex 35.0174 12.7806 2.5432
   vertex 35.6174 12.7806 2.5432
   vertex 35.6174 12.7806 2.4932
  endloop
 endfacet
 facet normal 0 1 0
  outer loop
   vertex 35.0174 12.7806 2.5432
   vertex 35.6174 12.7806 2.4932
   vertex 35.0174 12.7806 2.4932
  endloop
 endfacet
 facet normal -1 0 0
  outer loop
   vertex 35.0174 12.1806 2.5432
   vertex 35.0174 12.7806 2.5432
   vertex 35.0174 12.7806 2.4932
  endloop
 endfacet
 facet normal -1 0 0
  outer loop
   vertex 35.0174 12.1806 2.5432
   vertex 35.0174 12.7806 2.4932
   vertex 35.0174 12.1806 2.4932
  endloop
 endfacet
endsolid zone0
