solid zone0
 facet normal 0 -0 1
  outer loop
   vertex 43.5379 28.2002 2.7682
   vertex 43.5379 28.5502 2.7682
   vertex 43.3879 28.5502 2.7682
  endloop
 endfacet
 facet normal 0 0 1
  outer loop
   vertex 43.5379 28.2002 2.7682
   vertex 43.3879 28.5502 2.7682
   vertex 43.3879 28.2002 2.7682
  endloop
 endfacet
 facet normal -1 0 0
  outer loop
   vertex 43.3879 28.5502 2.5182
   vertex 43.3879 28.2002 2.5182
   vertex 43.3879 28.2002 2.7682
  endloop
 endfacet
 facet normal -1 0 0
  outer loop
   vertex 43.3879 28.5502 2.5182
   vertex 43.3879 28.2002 2.7682
   vertex 43.3879 28.5502 2.7682
  endloop
 endfacet
 facet normal 0 1 0
  outer loop
   vertex 43.5379 28.5502 2.5182
   vertex 43.3879 28.5502 2.5182
   vertex 43.3879 28.5502 2.7682
  endloop
 endfacet
 facet normal 0 1 -0
  outer loop
   vertex 43.5379 28.5502 2.5182
   vertex 43.3879 28.5502 2.7682
   vertex 43.5379 28.5502 2.7682
  endloop
 endfacet
 facet normal 1 0 0
  outer loop
   vertex 43.5379 28.2002 2.5182
   vertex 43.5379 28.5502 2.5182
   vertex 43.5379 28.5502 2.7682
  endloop
 endfacet
 facet normal 1 0 0
  outer loop
   vertex 43.5379 28.2002 2.5182
   vertex 43.5379 28.5502 2.7682
   vertex 43.5379 28.2002 2.7682
  endloop
 endfacet
 facet normal 0 -1 0
  outer loop
   vertex 43.3879 28.2002 2.5182
   vertex 43.5379 28.2002 2.5182
   vertex 43.5379 28.2002 2.7682
  endloop
 endfacet
 facet normal 0 -1 0
  outer loop
   vertex 43.3879 28.2002 2.5182
   vertex 43.5379 28.2002 2.7682
   vertex 43.3879 28.2002 2.7682
  endloop
 endfacet
endsolid zone0
