solid zone0
 facet normal 1 0 0
  outer loop
   vertex 16.3485 15.2536 2.5432
   vertex 16.3485 15.5536 2.5432
   vertex 16.3485 15.5536 2.7682
  endloop
 endfacet
 facet normal 1 0 0
  outer loop
   vertex 16.3485 15.2536 2.5432
   vertex 16.3485 15.5536 2.7682
   vertex 16.3485 15.2536 2.7682
  endloop
 endfacet
 facet normal 1 0 0
  outer loop
   vertex 16.3485 14.9536 2.5432
   vertex 16.3485 15.2536 2.5432
   vertex 16.3485 15.2536 2.7682
  endloop
 endfacet
 facet normal 1 0 0
  outer loop
   vertex 16.3485 14.9536 2.5432
   vertex 16.3485 15.2536 2.7682
   vertex 16.3485 14.9536 2.7682
  endloop
 endfacet
 facet normal 0 1 0
  outer loop
   vertex 16.6485 14.9536 2.5432
   vertex 16.3485 14.9536 2.5432
   vertex 16.3485 14.9536 2.7682
  endloop
 endfacet
 facet normal 0 1 -0
  outer loop
   vertex 16.6485 14.9536 2.5432
   vertex 16.3485 14.9536 2.7682
   vertex 16.6485 14.9536 2.7682
  endloop
 endfacet
 facet normal 0 1 0
  outer loop
   vertex 16.9485 14.9536 2.5432
   vertex 16.6485 14.9536 2.5432
   vertex 16.6485 14.9536 2.7682
  endloop
 endfacet
 facet normal 0 1 -0
  outer loop
   vertex 16.9485 14.9536 2.5432
   vertex 16.6485 14.9536 2.7682
   vertex 16.9485 14.9536 2.7682
  endloop
 endfacet
 facet normal -1 0 0
  outer loop
   vertex 16.9485 15.2536 2.5432
   vertex 16.9485 14.9536 2.5432
   vertex 16.9485 14.9536 2.7682
  endloop
 endfacet
 facet normal -1 0 0
  outer loop
   vertex 16.9485 15.2536 2.5432
   vertex 16.9485 14.9536 2.7682
   vertex 16.9485 15.2536 2.7682
  endloop
 endfacet
 facet normal -1 0 0
  outer loop
   vertex 16.9485 15.5536 2.5432
   vertex 16.9485 15.2536 2.5432
   vertex 16.9485 15.2536 2.7682
  endloop
 endfacet
 facet normal -1 0 0
  outer loop
   vertex 16.9485 15.5536 2.5432
   vertex 16.9485 15.2536 2.7682
   vertex 16.9485 15.5536 2.7682
  endloop
 endfacet
 facet normal 0 -1 0
  outer loop
   vertex 16.6485 15.5536 2.5432
   vertex 16.9485 15.5536 2.5432
   vertex 16.9485 15.5536 2.7682
  endloop
 endfacet
 facet normal 0 -1 0
  outer loop
   vertex 16.6485 15.5536 2.5432
   vertex 16.9485 15.5536 2.7682
   vertex 16.6485 15.5536 2.7682
  endloop
 endfacet
 facet normal 0 -1 0
  outer loop
   vertex 16.3485 15.5536 2.5432
   vertex 16.6485 15.5536 2.5432
   vertex 16.6485 15.5536 2.7682
  endloop
 endfacet
 facet normal 0 -1 0
  outer loop
   vertex 16.3485 15.5536 2.5432
   vertex 16.6485 15.5536 2.7682
   vertex 16.3485 15.5536 2.7682
  endloop
 endfacet
 facet normal 0 -0 1
  outer loop
   vertex 16.9485 14.9536 2.7682
   vertex 16.9485 15.5536 2.7682
   vertex 16.3485 15.5536 2.7682
  endloop
 endfacet
 facet normal 0 0 1
  outer loop
   vertex 16.9485 14.9536 2.7682
   vertex 16.3485 15.5536 2.7682
   vertex 16.3485 14.9536 2.7682
  endloop
 endfacet
 facet normal 0 0 -1
  outer loop
   vertex 16.9485 14.9536 2.4932
   vertex 16.3485 14.9536 2.4932
   vertex 16.3485 15.5536 2.4932
  endloop
 endfacet
 facet normal 0 0 -1
  outer loop
   vertex 16.9485 14.9536 2.4932
   vertex 16.3485 15.5536 2.4932
   vertex 16.9485 15.5536 2.4932
  endloop
 endfacet
endsolid zone0
