solid zone0
 facet normal 1 0 0
  outer loop
   vertex 17.9305 12.4509 2.5432
   vertex 17.9305 12.7509 2.5432
   vertex 17.9305 12.7509 2.7682
  endloop
 endfacet
 facet normal 1 0 0
  outer loop
   vertex 17.9305 12.4509 2.5432
   vertex 17.9305 12.7509 2.7682
   vertex 17.9305 12.4509 2.7682
  endloop
 endfacet
 facet normal 1 0 0
  outer loop
   vertex 17.9305 12.1509 2.5432
   vertex 17.9305 12.4509 2.5432
   vertex 17.9305 12.4509 2.7682
  endloop
 endfacet
 facet normal 1 0 0
  outer loop
   vertex 17.9305 12.1509 2.5432
   vertex 17.9305 12.4509 2.7682
   vertex 17.9305 12.1509 2.7682
  endloop
 endfacet
 facet normal 0 1 0
  outer loop
   vertex 18.2305 12.1509 2.5432
   vertex 17.9305 12.1509 2.5432
   vertex 17.9305 12.1509 2.7682
  endloop
 endfacet
 facet normal 0 1 -0
  outer loop
   vertex 18.2305 12.1509 2.5432
   vertex 17.9305 12.1509 2.7682
   vertex 18.2305 12.1509 2.7682
  endloop
 endfacet
 facet normal 0 1 0
  outer loop
   vertex 18.5305 12.1509 2.5432
   vertex 18.2305 12.1509 2.5432
   vertex 18.2305 12.1509 2.7682
  endloop
 endfacet
 facet normal 0 1 -0
  outer loop
   vertex 18.5305 12.1509 2.5432
   vertex 18.2305 12.1509 2.7682
   vertex 18.5305 12.1509 2.7682
  endloop
 endfacet
 facet normal -1 0 0
  outer loop
   vertex 18.5305 12.4509 2.5432
   vertex 18.5305 12.1509 2.5432
   vertex 18.5305 12.1509 2.7682
  endloop
 endfacet
 facet normal -1 0 0
  outer loop
   vertex 18.5305 12.4509 2.5432
   vertex 18.5305 12.1509 2.7682
   vertex 18.5305 12.4509 2.7682
  endloop
 endfacet
 facet normal -1 0 0
  outer loop
   vertex 18.5305 12.7509 2.5432
   vertex 18.5305 12.4509 2.5432
   vertex 18.5305 12.4509 2.7682
  endloop
 endfacet
 facet normal -1 0 0
  outer loop
   vertex 18.5305 12.7509 2.5432
   vertex 18.5305 12.4509 2.7682
   vertex 18.5305 12.7509 2.7682
  endloop
 endfacet
 facet normal 0 -1 0
  outer loop
   vertex 18.2305 12.7509 2.5432
   vertex 18.5305 12.7509 2.5432
   vertex 18.5305 12.7509 2.7682
  endloop
 endfacet
 facet normal 0 -1 0
  outer loop
   vertex 18.2305 12.7509 2.5432
   vertex 18.5305 12.7509 2.7682
   vertex 18.2305 12.7509 2.7682
  endloop
 endfacet
 facet normal 0 -1 0
  outer loop
   vertex 17.9305 12.7509 2.5432
   vertex 18.2305 12.7509 2.5432
   vertex 18.2305 12.7509 2.7682
  endloop
 endfacet
 facet normal 0 -1 0
  outer loop
   vertex 17.9305 12.7509 2.5432
   vertex 18.2305 12.7509 2.7682
   vertex 17.9305 12.7509 2.7682
  endloop
 endfacet
 facet normal 0 -0 1
  outer loop
   vertex 18.5305 12.1509 2.7682
   vertex 18.5305 12.7509 2.7682
   vertex 17.9305 12.7509 2.7682
  endloop
 endfacet
 facet normal 0 0 1
  outer loop
   vertex 18.5305 12.1509 2.7682
   vertex 17.9305 12.7509 2.7682
   vertex 17.9305 12.1509 2.7682
  endloop
 endfacet
 facet normal 0 0 -1
  outer loop
   vertex 18.5305 12.1509 2.4932
   vertex 17.9305 12.1509 2.4932
   vertex 17.9305 12.7509 2.4932
  endloop
 endfacet
 facet normal 0 0 -1
  outer loop
   vertex 18.5305 12.1509 2.4932
   vertex 17.9305 12.7509 2.4932
   vertex 18.5305 12.7509 2.4932
  endloop
 endfacet
endsolid zone0
