solid zone0
 facet normal 0 -0 -1
  outer loop
   vertex 23.9936 13.3773 2.7682
   vertex 23.9936 12.7773 2.7682
   vertex 23.8936 12.7773 2.7682
  endloop
 endfacet
 facet normal -0 0 -1
  outer loop
   vertex 23.9936 13.3773 2.7682
   vertex 23.8936 12.7773 2.7682
   vertex 23.8936 13.3773 2.7682
  endloop
 endfacet
 facet normal 1 0 0
  outer loop
   vertex 23.8936 12.7773 2.5182
   vertex 23.8936 13.3773 2.5182
   vertex 23.8936 13.3773 2.7682
  endloop
 endfacet
 facet normal 1 0 0
  outer loop
   vertex 23.8936 12.7773 2.5182
   vertex 23.8936 13.3773 2.7682
   vertex 23.8936 12.7773 2.7682
  endloop
 endfacet
 facet normal 0 1 0
  outer loop
   vertex 23.9936 12.7773 2.5182
   vertex 23.8936 12.7773 2.5182
   vertex 23.8936 12.7773 2.7682
  endloop
 endfacet
 facet normal 0 1 -0
  outer loop
   vertex 23.9936 12.7773 2.5182
   vertex 23.8936 12.7773 2.7682
   vertex 23.9936 12.7773 2.7682
  endloop
 endfacet
 facet normal -1 0 0
  outer loop
   vertex 23.9936 13.3773 2.5182
   vertex 23.9936 12.7773 2.5182
   vertex 23.9936 12.7773 2.7682
  endloop
 endfacet
 facet normal -1 0 0
  outer loop
   vertex 23.9936 13.3773 2.5182
   vertex 23.9936 12.7773 2.7682
   vertex 23.9936 13.3773 2.7682
  endloop
 endfacet
 facet normal 0 -1 0
  outer loop
   vertex 23.8936 13.3773 2.5182
   vertex 23.9936 13.3773 2.5182
   vertex 23.9936 13.3773 2.7682
  endloop
 endfacet
 facet normal 0 -1 0
  outer loop
   vertex 23.8936 13.3773 2.5182
   vertex 23.9936 13.3773 2.7682
   vertex 23.8936 13.3773 2.7682
  endloop
 endfacet
endsolid zone0
