solid zone0
 facet normal 0 0 1
  outer loop
   vertex 42.2099 31.4922 2.7682
   vertex 40.9899 31.4922 2.7682
   vertex 40.9899 31.3922 2.7682
  endloop
 endfacet
 facet normal 0 0 1
  outer loop
   vertex 42.2099 31.4922 2.7682
   vertex 40.9899 31.3922 2.7682
   vertex 42.2099 31.3922 2.7682
  endloop
 endfacet
 facet normal 0 -1 0
  outer loop
   vertex 40.9899 31.3922 2.5182
   vertex 42.2099 31.3922 2.5182
   vertex 42.2099 31.3922 2.7682
  endloop
 endfacet
 facet normal 0 -1 0
  outer loop
   vertex 40.9899 31.3922 2.5182
   vertex 42.2099 31.3922 2.7682
   vertex 40.9899 31.3922 2.7682
  endloop
 endfacet
 facet normal -1 0 0
  outer loop
   vertex 40.9899 31.4922 2.5182
   vertex 40.9899 31.3922 2.5182
   vertex 40.9899 31.3922 2.7682
  endloop
 endfacet
 facet normal -1 0 0
  outer loop
   vertex 40.9899 31.4922 2.5182
   vertex 40.9899 31.3922 2.7682
   vertex 40.9899 31.4922 2.7682
  endloop
 endfacet
 facet normal 0 1 0
  outer loop
   vertex 42.2099 31.4922 2.5182
   vertex 40.9899 31.4922 2.5182
   vertex 40.9899 31.4922 2.7682
  endloop
 endfacet
 facet normal 0 1 -0
  outer loop
   vertex 42.2099 31.4922 2.5182
   vertex 40.9899 31.4922 2.7682
   vertex 42.2099 31.4922 2.7682
  endloop
 endfacet
 facet normal 1 0 0
  outer loop
   vertex 42.2099 31.3922 2.5182
   vertex 42.2099 31.4922 2.5182
   vertex 42.2099 31.4922 2.7682
  endloop
 endfacet
 facet normal 1 0 0
  outer loop
   vertex 42.2099 31.3922 2.5182
   vertex 42.2099 31.4922 2.7682
   vertex 42.2099 31.3922 2.7682
  endloop
 endfacet
endsolid zone0
