solid zone0
 facet normal 0 -0 -1
  outer loop
   vertex 49.4707 26.1226 2.7682
   vertex 49.4707 25.5126 2.7682
   vertex 49.4517 25.5126 2.7682
  endloop
 endfacet
 facet normal -0 0 -1
  outer loop
   vertex 49.4707 26.1226 2.7682
   vertex 49.4517 25.5126 2.7682
   vertex 49.4517 26.1226 2.7682
  endloop
 endfacet
 facet normal 1 0 0
  outer loop
   vertex 49.4517 25.5126 2.5182
   vertex 49.4517 26.1226 2.5182
   vertex 49.4517 26.1226 2.7682
  endloop
 endfacet
 facet normal 1 0 0
  outer loop
   vertex 49.4517 25.5126 2.5182
   vertex 49.4517 26.1226 2.7682
   vertex 49.4517 25.5126 2.7682
  endloop
 endfacet
 facet normal 0 1 0
  outer loop
   vertex 49.4707 25.5126 2.5182
   vertex 49.4517 25.5126 2.5182
   vertex 49.4517 25.5126 2.7682
  endloop
 endfacet
 facet normal 0 1 -0
  outer loop
   vertex 49.4707 25.5126 2.5182
   vertex 49.4517 25.5126 2.7682
   vertex 49.4707 25.5126 2.7682
  endloop
 endfacet
 facet normal -1 0 0
  outer loop
   vertex 49.4707 26.1226 2.5182
   vertex 49.4707 25.5126 2.5182
   vertex 49.4707 25.5126 2.7682
  endloop
 endfacet
 facet normal -1 0 0
  outer loop
   vertex 49.4707 26.1226 2.5182
   vertex 49.4707 25.5126 2.7682
   vertex 49.4707 26.1226 2.7682
  endloop
 endfacet
 facet normal 0 -1 0
  outer loop
   vertex 49.4517 26.1226 2.5182
   vertex 49.4707 26.1226 2.5182
   vertex 49.4707 26.1226 2.7682
  endloop
 endfacet
 facet normal 0 -1 0
  outer loop
   vertex 49.4517 26.1226 2.5182
   vertex 49.4707 26.1226 2.7682
   vertex 49.4517 26.1226 2.7682
  endloop
 endfacet
endsolid zone0
