solid zone0
 facet normal 0 -0 1
  outer loop
   vertex 10.1386 9.65961 2.7682
   vertex 10.1386 10.2696 2.7682
   vertex 10.1196 10.2696 2.7682
  endloop
 endfacet
 facet normal 0 0 1
  outer loop
   vertex 10.1386 9.65961 2.7682
   vertex 10.1196 10.2696 2.7682
   vertex 10.1196 9.65961 2.7682
  endloop
 endfacet
 facet normal -1 0 0
  outer loop
   vertex 10.1196 10.2696 2.5182
   vertex 10.1196 9.65961 2.5182
   vertex 10.1196 9.65961 2.7682
  endloop
 endfacet
 facet normal -1 0 0
  outer loop
   vertex 10.1196 10.2696 2.5182
   vertex 10.1196 9.65961 2.7682
   vertex 10.1196 10.2696 2.7682
  endloop
 endfacet
 facet normal 0 1 0
  outer loop
   vertex 10.1386 10.2696 2.5182
   vertex 10.1196 10.2696 2.5182
   vertex 10.1196 10.2696 2.7682
  endloop
 endfacet
 facet normal 0 1 -0
  outer loop
   vertex 10.1386 10.2696 2.5182
   vertex 10.1196 10.2696 2.7682
   vertex 10.1386 10.2696 2.7682
  endloop
 endfacet
 facet normal 1 0 0
  outer loop
   vertex 10.1386 9.65961 2.5182
   vertex 10.1386 10.2696 2.5182
   vertex 10.1386 10.2696 2.7682
  endloop
 endfacet
 facet normal 1 0 0
  outer loop
   vertex 10.1386 9.65961 2.5182
   vertex 10.1386 10.2696 2.7682
   vertex 10.1386 9.65961 2.7682
  endloop
 endfacet
 facet normal 0 -1 0
  outer loop
   vertex 10.1196 9.65961 2.5182
   vertex 10.1386 9.65961 2.5182
   vertex 10.1386 9.65961 2.7682
  endloop
 endfacet
 facet normal 0 -1 0
  outer loop
   vertex 10.1196 9.65961 2.5182
   vertex 10.1386 9.65961 2.7682
   vertex 10.1196 9.65961 2.7682
  endloop
 endfacet
endsolid zone0
