solid zone0
 facet normal 0 -0 -1
  outer loop
   vertex 45.6614 31.7158 2.7682
   vertex 45.6614 31.1058 2.7682
   vertex 45.6424 31.1058 2.7682
  endloop
 endfacet
 facet normal -0 0 -1
  outer loop
   vertex 45.6614 31.7158 2.7682
   vertex 45.6424 31.1058 2.7682
   vertex 45.6424 31.7158 2.7682
  endloop
 endfacet
 facet normal 1 0 0
  outer loop
   vertex 45.6424 31.1058 2.5182
   vertex 45.6424 31.7158 2.5182
   vertex 45.6424 31.7158 2.7682
  endloop
 endfacet
 facet normal 1 0 0
  outer loop
   vertex 45.6424 31.1058 2.5182
   vertex 45.6424 31.7158 2.7682
   vertex 45.6424 31.1058 2.7682
  endloop
 endfacet
 facet normal 0 1 0
  outer loop
   vertex 45.6614 31.1058 2.5182
   vertex 45.6424 31.1058 2.5182
   vertex 45.6424 31.1058 2.7682
  endloop
 endfacet
 facet normal 0 1 -0
  outer loop
   vertex 45.6614 31.1058 2.5182
   vertex 45.6424 31.1058 2.7682
   vertex 45.6614 31.1058 2.7682
  endloop
 endfacet
 facet normal -1 0 0
  outer loop
   vertex 45.6614 31.7158 2.5182
   vertex 45.6614 31.1058 2.5182
   vertex 45.6614 31.1058 2.7682
  endloop
 endfacet
 facet normal -1 0 0
  outer loop
   vertex 45.6614 31.7158 2.5182
   vertex 45.6614 31.1058 2.7682
   vertex 45.6614 31.7158 2.7682
  endloop
 endfacet
 facet normal 0 -1 0
  outer loop
   vertex 45.6424 31.7158 2.5182
   vertex 45.6614 31.7158 2.5182
   vertex 45.6614 31.7158 2.7682
  endloop
 endfacet
 facet normal 0 -1 0
  outer loop
   vertex 45.6424 31.7158 2.5182
   vertex 45.6614 31.7158 2.7682
   vertex 45.6424 31.7158 2.7682
  endloop
 endfacet
endsolid zone0
