solid zone0
 facet normal 1 0 0
  outer loop
   vertex 19.3552 5.57714 2.5432
   vertex 19.3552 5.87714 2.5432
   vertex 19.3552 5.87714 2.7682
  endloop
 endfacet
 facet normal 1 0 0
  outer loop
   vertex 19.3552 5.57714 2.5432
   vertex 19.3552 5.87714 2.7682
   vertex 19.3552 5.57714 2.7682
  endloop
 endfacet
 facet normal 1 0 0
  outer loop
   vertex 19.3552 5.27714 2.5432
   vertex 19.3552 5.57714 2.5432
   vertex 19.3552 5.57714 2.7682
  endloop
 endfacet
 facet normal 1 0 0
  outer loop
   vertex 19.3552 5.27714 2.5432
   vertex 19.3552 5.57714 2.7682
   vertex 19.3552 5.27714 2.7682
  endloop
 endfacet
 facet normal 0 1 0
  outer loop
   vertex 19.6552 5.27714 2.5432
   vertex 19.3552 5.27714 2.5432
   vertex 19.3552 5.27714 2.7682
  endloop
 endfacet
 facet normal 0 1 -0
  outer loop
   vertex 19.6552 5.27714 2.5432
   vertex 19.3552 5.27714 2.7682
   vertex 19.6552 5.27714 2.7682
  endloop
 endfacet
 facet normal 0 1 0
  outer loop
   vertex 19.9552 5.27714 2.5432
   vertex 19.6552 5.27714 2.5432
   vertex 19.6552 5.27714 2.7682
  endloop
 endfacet
 facet normal 0 1 -0
  outer loop
   vertex 19.9552 5.27714 2.5432
   vertex 19.6552 5.27714 2.7682
   vertex 19.9552 5.27714 2.7682
  endloop
 endfacet
 facet normal -1 0 0
  outer loop
   vertex 19.9552 5.57714 2.5432
   vertex 19.9552 5.27714 2.5432
   vertex 19.9552 5.27714 2.7682
  endloop
 endfacet
 facet normal -1 0 0
  outer loop
   vertex 19.9552 5.57714 2.5432
   vertex 19.9552 5.27714 2.7682
   vertex 19.9552 5.57714 2.7682
  endloop
 endfacet
 facet normal -1 0 0
  outer loop
   vertex 19.9552 5.87714 2.5432
   vertex 19.9552 5.57714 2.5432
   vertex 19.9552 5.57714 2.7682
  endloop
 endfacet
 facet normal -1 0 0
  outer loop
   vertex 19.9552 5.87714 2.5432
   vertex 19.9552 5.57714 2.7682
   vertex 19.9552 5.87714 2.7682
  endloop
 endfacet
 facet normal 0 -1 0
  outer loop
   vertex 19.6552 5.87714 2.5432
   vertex 19.9552 5.87714 2.5432
   vertex 19.9552 5.87714 2.7682
  endloop
 endfacet
 facet normal 0 -1 0
  outer loop
   vertex 19.6552 5.87714 2.5432
   vertex 19.9552 5.87714 2.7682
   vertex 19.6552 5.87714 2.7682
  endloop
 endfacet
 facet normal 0 -1 0
  outer loop
   vertex 19.3552 5.87714 2.5432
   vertex 19.6552 5.87714 2.5432
   vertex 19.6552 5.87714 2.7682
  endloop
 endfacet
 facet normal 0 -1 0
  outer loop
   vertex 19.3552 5.87714 2.5432
   vertex 19.6552 5.87714 2.7682
   vertex 19.3552 5.87714 2.7682
  endloop
 endfacet
 facet normal 0 -0 1
  outer loop
   vertex 19.9552 5.27714 2.7682
   vertex 19.9552 5.87714 2.7682
   vertex 19.3552 5.87714 2.7682
  endloop
 endfacet
 facet normal 0 0 1
  outer loop
   vertex 19.9552 5.27714 2.7682
   vertex 19.3552 5.87714 2.7682
   vertex 19.3552 5.27714 2.7682
  endloop
 endfacet
 facet normal 0 0 -1
  outer loop
   vertex 19.9552 5.27714 2.4932
   vertex 19.3552 5.27714 2.4932
   vertex 19.3552 5.87714 2.4932
  endloop
 endfacet
 facet normal 0 0 -1
  outer loop
   vertex 19.9552 5.27714 2.4932
   vertex 19.3552 5.87714 2.4932
   vertex 19.9552 5.87714 2.4932
  endloop
 endfacet
endsolid zone0
