solid zone0
 facet normal 1 0 0
  outer loop
   vertex 46.5424 14.0579 2.5432
   vertex 46.5424 14.3579 2.5432
   vertex 46.5424 14.3579 2.7682
  endloop
 endfacet
 facet normal 1 0 0
  outer loop
   vertex 46.5424 14.0579 2.5432
   vertex 46.5424 14.3579 2.7682
   vertex 46.5424 14.0579 2.7682
  endloop
 endfacet
 facet normal 1 0 0
  outer loop
   vertex 46.5424 13.7579 2.5432
   vertex 46.5424 14.0579 2.5432
   vertex 46.5424 14.0579 2.7682
  endloop
 endfacet
 facet normal 1 0 0
  outer loop
   vertex 46.5424 13.7579 2.5432
   vertex 46.5424 14.0579 2.7682
   vertex 46.5424 13.7579 2.7682
  endloop
 endfacet
 facet normal 0 1 0
  outer loop
   vertex 46.8424 13.7579 2.5432
   vertex 46.5424 13.7579 2.5432
   vertex 46.5424 13.7579 2.7682
  endloop
 endfacet
 facet normal 0 1 -0
  outer loop
   vertex 46.8424 13.7579 2.5432
   vertex 46.5424 13.7579 2.7682
   vertex 46.8424 13.7579 2.7682
  endloop
 endfacet
 facet normal 0 1 0
  outer loop
   vertex 47.1424 13.7579 2.5432
   vertex 46.8424 13.7579 2.5432
   vertex 46.8424 13.7579 2.7682
  endloop
 endfacet
 facet normal 0 1 -0
  outer loop
   vertex 47.1424 13.7579 2.5432
   vertex 46.8424 13.7579 2.7682
   vertex 47.1424 13.7579 2.7682
  endloop
 endfacet
 facet normal -1 0 0
  outer loop
   vertex 47.1424 14.0579 2.5432
   vertex 47.1424 13.7579 2.5432
   vertex 47.1424 13.7579 2.7682
  endloop
 endfacet
 facet normal -1 0 0
  outer loop
   vertex 47.1424 14.0579 2.5432
   vertex 47.1424 13.7579 2.7682
   vertex 47.1424 14.0579 2.7682
  endloop
 endfacet
 facet normal -1 0 0
  outer loop
   vertex 47.1424 14.3579 2.5432
   vertex 47.1424 14.0579 2.5432
   vertex 47.1424 14.0579 2.7682
  endloop
 endfacet
 facet normal -1 0 0
  outer loop
   vertex 47.1424 14.3579 2.5432
   vertex 47.1424 14.0579 2.7682
   vertex 47.1424 14.3579 2.7682
  endloop
 endfacet
 facet normal 0 -1 0
  outer loop
   vertex 46.8424 14.3579 2.5432
   vertex 47.1424 14.3579 2.5432
   vertex 47.1424 14.3579 2.7682
  endloop
 endfacet
 facet normal 0 -1 0
  outer loop
   vertex 46.8424 14.3579 2.5432
   vertex 47.1424 14.3579 2.7682
   vertex 46.8424 14.3579 2.7682
  endloop
 endfacet
 facet normal 0 -1 0
  outer loop
   vertex 46.5424 14.3579 2.5432
   vertex 46.8424 14.3579 2.5432
   vertex 46.8424 14.3579 2.7682
  endloop
 endfacet
 facet normal 0 -1 0
  outer loop
   vertex 46.5424 14.3579 2.5432
   vertex 46.8424 14.3579 2.7682
   vertex 46.5424 14.3579 2.7682
  endloop
 endfacet
 facet normal 0 -0 1
  outer loop
   vertex 47.1424 13.7579 2.7682
   vertex 47.1424 14.3579 2.7682
   vertex 46.5424 14.3579 2.7682
  endloop
 endfacet
 facet normal 0 0 1
  outer loop
   vertex 47.1424 13.7579 2.7682
   vertex 46.5424 14.3579 2.7682
   vertex 46.5424 13.7579 2.7682
  endloop
 endfacet
 facet normal 0 0 -1
  outer loop
   vertex 47.1424 13.7579 2.4932
   vertex 46.5424 13.7579 2.4932
   vertex 46.5424 14.3579 2.4932
  endloop
 endfacet
 facet normal 0 0 -1
  outer loop
   vertex 47.1424 13.7579 2.4932
   vertex 46.5424 14.3579 2.4932
   vertex 47.1424 14.3579 2.4932
  endloop
 endfacet
endsolid zone0
