solid zone0
 facet normal 1 0 0
  outer loop
   vertex 15.9737 29.1369 2.5432
   vertex 15.9737 29.2869 2.5432
   vertex 15.9737 29.2869 2.7682
  endloop
 endfacet
 facet normal 1 0 0
  outer loop
   vertex 15.9737 29.1369 2.5432
   vertex 15.9737 29.2869 2.7682
   vertex 15.9737 29.1369 2.7682
  endloop
 endfacet
 facet normal 1 0 0
  outer loop
   vertex 15.9737 28.9869 2.5432
   vertex 15.9737 29.1369 2.5432
   vertex 15.9737 29.1369 2.7682
  endloop
 endfacet
 facet normal 1 0 0
  outer loop
   vertex 15.9737 28.9869 2.5432
   vertex 15.9737 29.1369 2.7682
   vertex 15.9737 28.9869 2.7682
  endloop
 endfacet
 facet normal 0 1 0
  outer loop
   vertex 16.1237 28.9869 2.5432
   vertex 15.9737 28.9869 2.5432
   vertex 15.9737 28.9869 2.7682
  endloop
 endfacet
 facet normal 0 1 -0
  outer loop
   vertex 16.1237 28.9869 2.5432
   vertex 15.9737 28.9869 2.7682
   vertex 16.1237 28.9869 2.7682
  endloop
 endfacet
 facet normal 0 1 0
  outer loop
   vertex 16.2737 28.9869 2.5432
   vertex 16.1237 28.9869 2.5432
   vertex 16.1237 28.9869 2.7682
  endloop
 endfacet
 facet normal 0 1 -0
  outer loop
   vertex 16.2737 28.9869 2.5432
   vertex 16.1237 28.9869 2.7682
   vertex 16.2737 28.9869 2.7682
  endloop
 endfacet
 facet normal -1 0 0
  outer loop
   vertex 16.2737 29.1369 2.5432
   vertex 16.2737 28.9869 2.5432
   vertex 16.2737 28.9869 2.7682
  endloop
 endfacet
 facet normal -1 0 0
  outer loop
   vertex 16.2737 29.1369 2.5432
   vertex 16.2737 28.9869 2.7682
   vertex 16.2737 29.1369 2.7682
  endloop
 endfacet
 facet normal -1 0 0
  outer loop
   vertex 16.2737 29.2869 2.5432
   vertex 16.2737 29.1369 2.5432
   vertex 16.2737 29.1369 2.7682
  endloop
 endfacet
 facet normal -1 0 0
  outer loop
   vertex 16.2737 29.2869 2.5432
   vertex 16.2737 29.1369 2.7682
   vertex 16.2737 29.2869 2.7682
  endloop
 endfacet
 facet normal 0 -1 0
  outer loop
   vertex 16.1237 29.2869 2.5432
   vertex 16.2737 29.2869 2.5432
   vertex 16.2737 29.2869 2.7682
  endloop
 endfacet
 facet normal 0 -1 0
  outer loop
   vertex 16.1237 29.2869 2.5432
   vertex 16.2737 29.2869 2.7682
   vertex 16.1237 29.2869 2.7682
  endloop
 endfacet
 facet normal 0 -1 0
  outer loop
   vertex 15.9737 29.2869 2.5432
   vertex 16.1237 29.2869 2.5432
   vertex 16.1237 29.2869 2.7682
  endloop
 endfacet
 facet normal 0 -1 0
  outer loop
   vertex 15.9737 29.2869 2.5432
   vertex 16.1237 29.2869 2.7682
   vertex 15.9737 29.2869 2.7682
  endloop
 endfacet
 facet normal 0 -0 1
  outer loop
   vertex 16.2737 28.9869 2.7682
   vertex 16.2737 29.2869 2.7682
   vertex 15.9737 29.2869 2.7682
  endloop
 endfacet
 facet normal 0 0 1
  outer loop
   vertex 16.2737 28.9869 2.7682
   vertex 15.9737 29.2869 2.7682
   vertex 15.9737 28.9869 2.7682
  endloop
 endfacet
 facet normal 0 0 -1
  outer loop
   vertex 16.2737 28.9869 2.4932
   vertex 15.9737 28.9869 2.4932
   vertex 15.9737 29.2869 2.4932
  endloop
 endfacet
 facet normal 0 0 -1
  outer loop
   vertex 16.2737 28.9869 2.4932
   vertex 15.9737 29.2869 2.4932
   vertex 16.2737 29.2869 2.4932
  endloop
 endfacet
endsolid zone0
