solid zone0
 facet normal 0 -0 -1
  outer loop
   vertex 45.6614 10.2694 2.7682
   vertex 45.6614 9.65941 2.7682
   vertex 45.6424 9.65941 2.7682
  endloop
 endfacet
 facet normal -0 0 -1
  outer loop
   vertex 45.6614 10.2694 2.7682
   vertex 45.6424 9.65941 2.7682
   vertex 45.6424 10.2694 2.7682
  endloop
 endfacet
 facet normal 1 0 0
  outer loop
   vertex 45.6424 9.65941 2.5182
   vertex 45.6424 10.2694 2.5182
   vertex 45.6424 10.2694 2.7682
  endloop
 endfacet
 facet normal 1 0 0
  outer loop
   vertex 45.6424 9.65941 2.5182
   vertex 45.6424 10.2694 2.7682
   vertex 45.6424 9.65941 2.7682
  endloop
 endfacet
 facet normal 0 1 0
  outer loop
   vertex 45.6614 9.65941 2.5182
   vertex 45.6424 9.65941 2.5182
   vertex 45.6424 9.65941 2.7682
  endloop
 endfacet
 facet normal 0 1 -0
  outer loop
   vertex 45.6614 9.65941 2.5182
   vertex 45.6424 9.65941 2.7682
   vertex 45.6614 9.65941 2.7682
  endloop
 endfacet
 facet normal -1 0 0
  outer loop
   vertex 45.6614 10.2694 2.5182
   vertex 45.6614 9.65941 2.5182
   vertex 45.6614 9.65941 2.7682
  endloop
 endfacet
 facet normal -1 0 0
  outer loop
   vertex 45.6614 10.2694 2.5182
   vertex 45.6614 9.65941 2.7682
   vertex 45.6614 10.2694 2.7682
  endloop
 endfacet
 facet normal 0 -1 0
  outer loop
   vertex 45.6424 10.2694 2.5182
   vertex 45.6614 10.2694 2.5182
   vertex 45.6614 10.2694 2.7682
  endloop
 endfacet
 facet normal 0 -1 0
  outer loop
   vertex 45.6424 10.2694 2.5182
   vertex 45.6614 10.2694 2.7682
   vertex 45.6424 10.2694 2.7682
  endloop
 endfacet
endsolid zone0
