solid zone0
 facet normal 1 0 0
  outer loop
   vertex 8.56039 20.7634 2.5432
   vertex 8.56039 21.0634 2.5432
   vertex 8.56039 21.0634 2.7682
  endloop
 endfacet
 facet normal 1 0 0
  outer loop
   vertex 8.56039 20.7634 2.5432
   vertex 8.56039 21.0634 2.7682
   vertex 8.56039 20.7634 2.7682
  endloop
 endfacet
 facet normal 1 0 0
  outer loop
   vertex 8.56039 20.4634 2.5432
   vertex 8.56039 20.7634 2.5432
   vertex 8.56039 20.7634 2.7682
  endloop
 endfacet
 facet normal 1 0 0
  outer loop
   vertex 8.56039 20.4634 2.5432
   vertex 8.56039 20.7634 2.7682
   vertex 8.56039 20.4634 2.7682
  endloop
 endfacet
 facet normal 0 1 0
  outer loop
   vertex 8.86039 20.4634 2.5432
   vertex 8.56039 20.4634 2.5432
   vertex 8.56039 20.4634 2.7682
  endloop
 endfacet
 facet normal 0 1 -0
  outer loop
   vertex 8.86039 20.4634 2.5432
   vertex 8.56039 20.4634 2.7682
   vertex 8.86039 20.4634 2.7682
  endloop
 endfacet
 facet normal 0 1 0
  outer loop
   vertex 9.16039 20.4634 2.5432
   vertex 8.86039 20.4634 2.5432
   vertex 8.86039 20.4634 2.7682
  endloop
 endfacet
 facet normal 0 1 -0
  outer loop
   vertex 9.16039 20.4634 2.5432
   vertex 8.86039 20.4634 2.7682
   vertex 9.16039 20.4634 2.7682
  endloop
 endfacet
 facet normal -1 0 0
  outer loop
   vertex 9.16039 20.7634 2.5432
   vertex 9.16039 20.4634 2.5432
   vertex 9.16039 20.4634 2.7682
  endloop
 endfacet
 facet normal -1 0 0
  outer loop
   vertex 9.16039 20.7634 2.5432
   vertex 9.16039 20.4634 2.7682
   vertex 9.16039 20.7634 2.7682
  endloop
 endfacet
 facet normal -1 0 0
  outer loop
   vertex 9.16039 21.0634 2.5432
   vertex 9.16039 20.7634 2.5432
   vertex 9.16039 20.7634 2.7682
  endloop
 endfacet
 facet normal -1 0 0
  outer loop
   vertex 9.16039 21.0634 2.5432
   vertex 9.16039 20.7634 2.7682
   vertex 9.16039 21.0634 2.7682
  endloop
 endfacet
 facet normal 0 -1 0
  outer loop
   vertex 8.86039 21.0634 2.5432
   vertex 9.16039 21.0634 2.5432
   vertex 9.16039 21.0634 2.7682
  endloop
 endfacet
 facet normal 0 -1 0
  outer loop
   vertex 8.86039 21.0634 2.5432
   vertex 9.16039 21.0634 2.7682
   vertex 8.86039 21.0634 2.7682
  endloop
 endfacet
 facet normal 0 -1 0
  outer loop
   vertex 8.56039 21.0634 2.5432
   vertex 8.86039 21.0634 2.5432
   vertex 8.86039 21.0634 2.7682
  endloop
 endfacet
 facet normal 0 -1 0
  outer loop
   vertex 8.56039 21.0634 2.5432
   vertex 8.86039 21.0634 2.7682
   vertex 8.56039 21.0634 2.7682
  endloop
 endfacet
 facet normal 0 -0 1
  outer loop
   vertex 9.16039 20.4634 2.7682
   vertex 9.16039 21.0634 2.7682
   vertex 8.56039 21.0634 2.7682
  endloop
 endfacet
 facet normal 0 0 1
  outer loop
   vertex 9.16039 20.4634 2.7682
   vertex 8.56039 21.0634 2.7682
   vertex 8.56039 20.4634 2.7682
  endloop
 endfacet
 facet normal 0 0 -1
  outer loop
   vertex 9.16039 20.4634 2.4932
   vertex 8.56039 20.4634 2.4932
   vertex 8.56039 21.0634 2.4932
  endloop
 endfacet
 facet normal 0 0 -1
  outer loop
   vertex 9.16039 20.4634 2.4932
   vertex 8.56039 21.0634 2.4932
   vertex 9.16039 21.0634 2.4932
  endloop
 endfacet
endsolid zone0
