solid zone0
 facet normal 0 -0 1
  outer loop
   vertex 33.5649 11.9125 2.7682
   vertex 33.5649 13.4325 2.7682
   vertex 33.5349 13.4325 2.7682
  endloop
 endfacet
 facet normal 0 0 1
  outer loop
   vertex 33.5649 11.9125 2.7682
   vertex 33.5349 13.4325 2.7682
   vertex 33.5349 11.9125 2.7682
  endloop
 endfacet
 facet normal -1 0 0
  outer loop
   vertex 33.5349 13.4325 2.5182
   vertex 33.5349 11.9125 2.5182
   vertex 33.5349 11.9125 2.7682
  endloop
 endfacet
 facet normal -1 0 0
  outer loop
   vertex 33.5349 13.4325 2.5182
   vertex 33.5349 11.9125 2.7682
   vertex 33.5349 13.4325 2.7682
  endloop
 endfacet
 facet normal 0 1 0
  outer loop
   vertex 33.5649 13.4325 2.5182
   vertex 33.5349 13.4325 2.5182
   vertex 33.5349 13.4325 2.7682
  endloop
 endfacet
 facet normal 0 1 -0
  outer loop
   vertex 33.5649 13.4325 2.5182
   vertex 33.5349 13.4325 2.7682
   vertex 33.5649 13.4325 2.7682
  endloop
 endfacet
 facet normal 1 0 0
  outer loop
   vertex 33.5649 11.9125 2.5182
   vertex 33.5649 13.4325 2.5182
   vertex 33.5649 13.4325 2.7682
  endloop
 endfacet
 facet normal 1 0 0
  outer loop
   vertex 33.5649 11.9125 2.5182
   vertex 33.5649 13.4325 2.7682
   vertex 33.5649 11.9125 2.7682
  endloop
 endfacet
 facet normal 0 -1 0
  outer loop
   vertex 33.5349 11.9125 2.5182
   vertex 33.5649 11.9125 2.5182
   vertex 33.5649 11.9125 2.7682
  endloop
 endfacet
 facet normal 0 -1 0
  outer loop
   vertex 33.5349 11.9125 2.5182
   vertex 33.5649 11.9125 2.7682
   vertex 33.5349 11.9125 2.7682
  endloop
 endfacet
endsolid zone0
