solid zone0
 facet normal 0 0 1
  outer loop
   vertex 43.4376 31.4922 2.7682
   vertex 42.2176 31.4922 2.7682
   vertex 42.2176 31.3922 2.7682
  endloop
 endfacet
 facet normal 0 0 1
  outer loop
   vertex 43.4376 31.4922 2.7682
   vertex 42.2176 31.3922 2.7682
   vertex 43.4376 31.3922 2.7682
  endloop
 endfacet
 facet normal 0 -1 0
  outer loop
   vertex 42.2176 31.3922 2.5182
   vertex 43.4376 31.3922 2.5182
   vertex 43.4376 31.3922 2.7682
  endloop
 endfacet
 facet normal 0 -1 0
  outer loop
   vertex 42.2176 31.3922 2.5182
   vertex 43.4376 31.3922 2.7682
   vertex 42.2176 31.3922 2.7682
  endloop
 endfacet
 facet normal -1 0 0
  outer loop
   vertex 42.2176 31.4922 2.5182
   vertex 42.2176 31.3922 2.5182
   vertex 42.2176 31.3922 2.7682
  endloop
 endfacet
 facet normal -1 0 0
  outer loop
   vertex 42.2176 31.4922 2.5182
   vertex 42.2176 31.3922 2.7682
   vertex 42.2176 31.4922 2.7682
  endloop
 endfacet
 facet normal 0 1 0
  outer loop
   vertex 43.4376 31.4922 2.5182
   vertex 42.2176 31.4922 2.5182
   vertex 42.2176 31.4922 2.7682
  endloop
 endfacet
 facet normal 0 1 -0
  outer loop
   vertex 43.4376 31.4922 2.5182
   vertex 42.2176 31.4922 2.7682
   vertex 43.4376 31.4922 2.7682
  endloop
 endfacet
 facet normal 1 0 0
  outer loop
   vertex 43.4376 31.3922 2.5182
   vertex 43.4376 31.4922 2.5182
   vertex 43.4376 31.4922 2.7682
  endloop
 endfacet
 facet normal 1 0 0
  outer loop
   vertex 43.4376 31.3922 2.5182
   vertex 43.4376 31.4922 2.7682
   vertex 43.4376 31.3922 2.7682
  endloop
 endfacet
endsolid zone0
