solid zone0
 facet normal 1 0 0
  outer loop
   vertex 25.7323 32.8965 2.5432
   vertex 25.7323 33.1965 2.5432
   vertex 25.7323 33.1965 2.7682
  endloop
 endfacet
 facet normal 1 0 0
  outer loop
   vertex 25.7323 32.8965 2.5432
   vertex 25.7323 33.1965 2.7682
   vertex 25.7323 32.8965 2.7682
  endloop
 endfacet
 facet normal 1 0 0
  outer loop
   vertex 25.7323 32.5965 2.5432
   vertex 25.7323 32.8965 2.5432
   vertex 25.7323 32.8965 2.7682
  endloop
 endfacet
 facet normal 1 0 0
  outer loop
   vertex 25.7323 32.5965 2.5432
   vertex 25.7323 32.8965 2.7682
   vertex 25.7323 32.5965 2.7682
  endloop
 endfacet
 facet normal 0 1 0
  outer loop
   vertex 26.0323 32.5965 2.5432
   vertex 25.7323 32.5965 2.5432
   vertex 25.7323 32.5965 2.7682
  endloop
 endfacet
 facet normal 0 1 -0
  outer loop
   vertex 26.0323 32.5965 2.5432
   vertex 25.7323 32.5965 2.7682
   vertex 26.0323 32.5965 2.7682
  endloop
 endfacet
 facet normal 0 1 0
  outer loop
   vertex 26.3323 32.5965 2.5432
   vertex 26.0323 32.5965 2.5432
   vertex 26.0323 32.5965 2.7682
  endloop
 endfacet
 facet normal 0 1 -0
  outer loop
   vertex 26.3323 32.5965 2.5432
   vertex 26.0323 32.5965 2.7682
   vertex 26.3323 32.5965 2.7682
  endloop
 endfacet
 facet normal -1 0 0
  outer loop
   vertex 26.3323 32.8965 2.5432
   vertex 26.3323 32.5965 2.5432
   vertex 26.3323 32.5965 2.7682
  endloop
 endfacet
 facet normal -1 0 0
  outer loop
   vertex 26.3323 32.8965 2.5432
   vertex 26.3323 32.5965 2.7682
   vertex 26.3323 32.8965 2.7682
  endloop
 endfacet
 facet normal -1 0 0
  outer loop
   vertex 26.3323 33.1965 2.5432
   vertex 26.3323 32.8965 2.5432
   vertex 26.3323 32.8965 2.7682
  endloop
 endfacet
 facet normal -1 0 0
  outer loop
   vertex 26.3323 33.1965 2.5432
   vertex 26.3323 32.8965 2.7682
   vertex 26.3323 33.1965 2.7682
  endloop
 endfacet
 facet normal 0 -1 0
  outer loop
   vertex 26.0323 33.1965 2.5432
   vertex 26.3323 33.1965 2.5432
   vertex 26.3323 33.1965 2.7682
  endloop
 endfacet
 facet normal 0 -1 0
  outer loop
   vertex 26.0323 33.1965 2.5432
   vertex 26.3323 33.1965 2.7682
   vertex 26.0323 33.1965 2.7682
  endloop
 endfacet
 facet normal 0 -1 0
  outer loop
   vertex 25.7323 33.1965 2.5432
   vertex 26.0323 33.1965 2.5432
   vertex 26.0323 33.1965 2.7682
  endloop
 endfacet
 facet normal 0 -1 0
  outer loop
   vertex 25.7323 33.1965 2.5432
   vertex 26.0323 33.1965 2.7682
   vertex 25.7323 33.1965 2.7682
  endloop
 endfacet
 facet normal 0 -0 1
  outer loop
   vertex 26.3323 32.5965 2.7682
   vertex 26.3323 33.1965 2.7682
   vertex 25.7323 33.1965 2.7682
  endloop
 endfacet
 facet normal 0 0 1
  outer loop
   vertex 26.3323 32.5965 2.7682
   vertex 25.7323 33.1965 2.7682
   vertex 25.7323 32.5965 2.7682
  endloop
 endfacet
 facet normal 0 0 -1
  outer loop
   vertex 26.3323 32.5965 2.4932
   vertex 25.7323 32.5965 2.4932
   vertex 25.7323 33.1965 2.4932
  endloop
 endfacet
 facet normal 0 0 -1
  outer loop
   vertex 26.3323 32.5965 2.4932
   vertex 25.7323 33.1965 2.4932
   vertex 26.3323 33.1965 2.4932
  endloop
 endfacet
endsolid zone0
