solid zone0
 facet normal 0 0 1
  outer loop
   vertex 30.5707 3.14787 2.7682
   vertex 29.9607 3.14787 2.7682
   vertex 29.9607 3.12887 2.7682
  endloop
 endfacet
 facet normal 0 0 1
  outer loop
   vertex 30.5707 3.14787 2.7682
   vertex 29.9607 3.12887 2.7682
   vertex 30.5707 3.12887 2.7682
  endloop
 endfacet
 facet normal 0 -1 0
  outer loop
   vertex 29.9607 3.12887 2.5182
   vertex 30.5707 3.12887 2.5182
   vertex 30.5707 3.12887 2.7682
  endloop
 endfacet
 facet normal 0 -1 0
  outer loop
   vertex 29.9607 3.12887 2.5182
   vertex 30.5707 3.12887 2.7682
   vertex 29.9607 3.12887 2.7682
  endloop
 endfacet
 facet normal -1 0 0
  outer loop
   vertex 29.9607 3.14787 2.5182
   vertex 29.9607 3.12887 2.5182
   vertex 29.9607 3.12887 2.7682
  endloop
 endfacet
 facet normal -1 0 0
  outer loop
   vertex 29.9607 3.14787 2.5182
   vertex 29.9607 3.12887 2.7682
   vertex 29.9607 3.14787 2.7682
  endloop
 endfacet
 facet normal 0 1 0
  outer loop
   vertex 30.5707 3.14787 2.5182
   vertex 29.9607 3.14787 2.5182
   vertex 29.9607 3.14787 2.7682
  endloop
 endfacet
 facet normal 0 1 -0
  outer loop
   vertex 30.5707 3.14787 2.5182
   vertex 29.9607 3.14787 2.7682
   vertex 30.5707 3.14787 2.7682
  endloop
 endfacet
 facet normal 1 0 0
  outer loop
   vertex 30.5707 3.12887 2.5182
   vertex 30.5707 3.14787 2.5182
   vertex 30.5707 3.14787 2.7682
  endloop
 endfacet
 facet normal 1 0 0
  outer loop
   vertex 30.5707 3.12887 2.5182
   vertex 30.5707 3.14787 2.7682
   vertex 30.5707 3.12887 2.7682
  endloop
 endfacet
endsolid zone0
