solid zone0
 facet normal 1 0 0
  outer loop
   vertex 44.7292 21.9826 2.5432
   vertex 44.7292 22.2826 2.5432
   vertex 44.7292 22.2826 2.7682
  endloop
 endfacet
 facet normal 1 0 0
  outer loop
   vertex 44.7292 21.9826 2.5432
   vertex 44.7292 22.2826 2.7682
   vertex 44.7292 21.9826 2.7682
  endloop
 endfacet
 facet normal 1 0 0
  outer loop
   vertex 44.7292 21.6826 2.5432
   vertex 44.7292 21.9826 2.5432
   vertex 44.7292 21.9826 2.7682
  endloop
 endfacet
 facet normal 1 0 0
  outer loop
   vertex 44.7292 21.6826 2.5432
   vertex 44.7292 21.9826 2.7682
   vertex 44.7292 21.6826 2.7682
  endloop
 endfacet
 facet normal 0 1 0
  outer loop
   vertex 45.0292 21.6826 2.5432
   vertex 44.7292 21.6826 2.5432
   vertex 44.7292 21.6826 2.7682
  endloop
 endfacet
 facet normal 0 1 -0
  outer loop
   vertex 45.0292 21.6826 2.5432
   vertex 44.7292 21.6826 2.7682
   vertex 45.0292 21.6826 2.7682
  endloop
 endfacet
 facet normal 0 1 0
  outer loop
   vertex 45.3292 21.6826 2.5432
   vertex 45.0292 21.6826 2.5432
   vertex 45.0292 21.6826 2.7682
  endloop
 endfacet
 facet normal 0 1 -0
  outer loop
   vertex 45.3292 21.6826 2.5432
   vertex 45.0292 21.6826 2.7682
   vertex 45.3292 21.6826 2.7682
  endloop
 endfacet
 facet normal -1 0 0
  outer loop
   vertex 45.3292 21.9826 2.5432
   vertex 45.3292 21.6826 2.5432
   vertex 45.3292 21.6826 2.7682
  endloop
 endfacet
 facet normal -1 0 0
  outer loop
   vertex 45.3292 21.9826 2.5432
   vertex 45.3292 21.6826 2.7682
   vertex 45.3292 21.9826 2.7682
  endloop
 endfacet
 facet normal -1 0 0
  outer loop
   vertex 45.3292 22.2826 2.5432
   vertex 45.3292 21.9826 2.5432
   vertex 45.3292 21.9826 2.7682
  endloop
 endfacet
 facet normal -1 0 0
  outer loop
   vertex 45.3292 22.2826 2.5432
   vertex 45.3292 21.9826 2.7682
   vertex 45.3292 22.2826 2.7682
  endloop
 endfacet
 facet normal 0 -1 0
  outer loop
   vertex 45.0292 22.2826 2.5432
   vertex 45.3292 22.2826 2.5432
   vertex 45.3292 22.2826 2.7682
  endloop
 endfacet
 facet normal 0 -1 0
  outer loop
   vertex 45.0292 22.2826 2.5432
   vertex 45.3292 22.2826 2.7682
   vertex 45.0292 22.2826 2.7682
  endloop
 endfacet
 facet normal 0 -1 0
  outer loop
   vertex 44.7292 22.2826 2.5432
   vertex 45.0292 22.2826 2.5432
   vertex 45.0292 22.2826 2.7682
  endloop
 endfacet
 facet normal 0 -1 0
  outer loop
   vertex 44.7292 22.2826 2.5432
   vertex 45.0292 22.2826 2.7682
   vertex 44.7292 22.2826 2.7682
  endloop
 endfacet
 facet normal 0 -0 1
  outer loop
   vertex 45.3292 21.6826 2.7682
   vertex 45.3292 22.2826 2.7682
   vertex 44.7292 22.2826 2.7682
  endloop
 endfacet
 facet normal 0 0 1
  outer loop
   vertex 45.3292 21.6826 2.7682
   vertex 44.7292 22.2826 2.7682
   vertex 44.7292 21.6826 2.7682
  endloop
 endfacet
 facet normal 0 0 -1
  outer loop
   vertex 45.3292 21.6826 2.4932
   vertex 44.7292 21.6826 2.4932
   vertex 44.7292 22.2826 2.4932
  endloop
 endfacet
 facet normal 0 0 -1
  outer loop
   vertex 45.3292 21.6826 2.4932
   vertex 44.7292 22.2826 2.4932
   vertex 45.3292 22.2826 2.4932
  endloop
 endfacet
endsolid zone0
