solid zone0
 facet normal 0 -0 -1
  outer loop
   vertex 11.7008 13.1461 2.7682
   vertex 11.7008 12.5461 2.7682
   vertex 11.4008 12.5461 2.7682
  endloop
 endfacet
 facet normal -0 0 -1
  outer loop
   vertex 11.7008 13.1461 2.7682
   vertex 11.4008 12.5461 2.7682
   vertex 11.4008 13.1461 2.7682
  endloop
 endfacet
 facet normal 1 0 0
  outer loop
   vertex 11.4008 12.5461 2.5182
   vertex 11.4008 13.1461 2.5182
   vertex 11.4008 13.1461 2.7682
  endloop
 endfacet
 facet normal 1 0 0
  outer loop
   vertex 11.4008 12.5461 2.5182
   vertex 11.4008 13.1461 2.7682
   vertex 11.4008 12.5461 2.7682
  endloop
 endfacet
 facet normal 0 1 0
  outer loop
   vertex 11.7008 12.5461 2.5182
   vertex 11.4008 12.5461 2.5182
   vertex 11.4008 12.5461 2.7682
  endloop
 endfacet
 facet normal 0 1 -0
  outer loop
   vertex 11.7008 12.5461 2.5182
   vertex 11.4008 12.5461 2.7682
   vertex 11.7008 12.5461 2.7682
  endloop
 endfacet
 facet normal -1 0 0
  outer loop
   vertex 11.7008 13.1461 2.5182
   vertex 11.7008 12.5461 2.5182
   vertex 11.7008 12.5461 2.7682
  endloop
 endfacet
 facet normal -1 0 0
  outer loop
   vertex 11.7008 13.1461 2.5182
   vertex 11.7008 12.5461 2.7682
   vertex 11.7008 13.1461 2.7682
  endloop
 endfacet
 facet normal 0 -1 0
  outer loop
   vertex 11.4008 13.1461 2.5182
   vertex 11.7008 13.1461 2.5182
   vertex 11.7008 13.1461 2.7682
  endloop
 endfacet
 facet normal 0 -1 0
  outer loop
   vertex 11.4008 13.1461 2.5182
   vertex 11.7008 13.1461 2.7682
   vertex 11.4008 13.1461 2.7682
  endloop
 endfacet
endsolid zone0
