solid zone0
 facet normal 1 0 0
  outer loop
   vertex 8.55964 14.0579 2.5432
   vertex 8.55964 14.3579 2.5432
   vertex 8.55964 14.3579 2.7682
  endloop
 endfacet
 facet normal 1 0 0
  outer loop
   vertex 8.55964 14.0579 2.5432
   vertex 8.55964 14.3579 2.7682
   vertex 8.55964 14.0579 2.7682
  endloop
 endfacet
 facet normal 1 0 0
  outer loop
   vertex 8.55964 13.7579 2.5432
   vertex 8.55964 14.0579 2.5432
   vertex 8.55964 14.0579 2.7682
  endloop
 endfacet
 facet normal 1 0 0
  outer loop
   vertex 8.55964 13.7579 2.5432
   vertex 8.55964 14.0579 2.7682
   vertex 8.55964 13.7579 2.7682
  endloop
 endfacet
 facet normal 0 1 0
  outer loop
   vertex 8.85964 13.7579 2.5432
   vertex 8.55964 13.7579 2.5432
   vertex 8.55964 13.7579 2.7682
  endloop
 endfacet
 facet normal 0 1 -0
  outer loop
   vertex 8.85964 13.7579 2.5432
   vertex 8.55964 13.7579 2.7682
   vertex 8.85964 13.7579 2.7682
  endloop
 endfacet
 facet normal 0 1 0
  outer loop
   vertex 9.15964 13.7579 2.5432
   vertex 8.85964 13.7579 2.5432
   vertex 8.85964 13.7579 2.7682
  endloop
 endfacet
 facet normal 0 1 -0
  outer loop
   vertex 9.15964 13.7579 2.5432
   vertex 8.85964 13.7579 2.7682
   vertex 9.15964 13.7579 2.7682
  endloop
 endfacet
 facet normal -1 0 0
  outer loop
   vertex 9.15964 14.0579 2.5432
   vertex 9.15964 13.7579 2.5432
   vertex 9.15964 13.7579 2.7682
  endloop
 endfacet
 facet normal -1 0 0
  outer loop
   vertex 9.15964 14.0579 2.5432
   vertex 9.15964 13.7579 2.7682
   vertex 9.15964 14.0579 2.7682
  endloop
 endfacet
 facet normal -1 0 0
  outer loop
   vertex 9.15964 14.3579 2.5432
   vertex 9.15964 14.0579 2.5432
   vertex 9.15964 14.0579 2.7682
  endloop
 endfacet
 facet normal -1 0 0
  outer loop
   vertex 9.15964 14.3579 2.5432
   vertex 9.15964 14.0579 2.7682
   vertex 9.15964 14.3579 2.7682
  endloop
 endfacet
 facet normal 0 -1 0
  outer loop
   vertex 8.85964 14.3579 2.5432
   vertex 9.15964 14.3579 2.5432
   vertex 9.15964 14.3579 2.7682
  endloop
 endfacet
 facet normal 0 -1 0
  outer loop
   vertex 8.85964 14.3579 2.5432
   vertex 9.15964 14.3579 2.7682
   vertex 8.85964 14.3579 2.7682
  endloop
 endfacet
 facet normal 0 -1 0
  outer loop
   vertex 8.55964 14.3579 2.5432
   vertex 8.85964 14.3579 2.5432
   vertex 8.85964 14.3579 2.7682
  endloop
 endfacet
 facet normal 0 -1 0
  outer loop
   vertex 8.55964 14.3579 2.5432
   vertex 8.85964 14.3579 2.7682
   vertex 8.55964 14.3579 2.7682
  endloop
 endfacet
 facet normal 0 -0 1
  outer loop
   vertex 9.15964 13.7579 2.7682
   vertex 9.15964 14.3579 2.7682
   vertex 8.55964 14.3579 2.7682
  endloop
 endfacet
 facet normal 0 0 1
  outer loop
   vertex 9.15964 13.7579 2.7682
   vertex 8.55964 14.3579 2.7682
   vertex 8.55964 13.7579 2.7682
  endloop
 endfacet
 facet normal 0 0 -1
  outer loop
   vertex 9.15964 13.7579 2.4932
   vertex 8.55964 13.7579 2.4932
   vertex 8.55964 14.3579 2.4932
  endloop
 endfacet
 facet normal 0 0 -1
  outer loop
   vertex 9.15964 13.7579 2.4932
   vertex 8.55964 14.3579 2.4932
   vertex 9.15964 14.3579 2.4932
  endloop
 endfacet
endsolid zone0
