solid zone0
 facet normal 1 0 0
  outer loop
   vertex 28.499 5.57079 2.5432
   vertex 28.499 5.87079 2.5432
   vertex 28.499 5.87079 2.7682
  endloop
 endfacet
 facet normal 1 0 0
  outer loop
   vertex 28.499 5.57079 2.5432
   vertex 28.499 5.87079 2.7682
   vertex 28.499 5.57079 2.7682
  endloop
 endfacet
 facet normal 1 0 0
  outer loop
   vertex 28.499 5.27079 2.5432
   vertex 28.499 5.57079 2.5432
   vertex 28.499 5.57079 2.7682
  endloop
 endfacet
 facet normal 1 0 0
  outer loop
   vertex 28.499 5.27079 2.5432
   vertex 28.499 5.57079 2.7682
   vertex 28.499 5.27079 2.7682
  endloop
 endfacet
 facet normal 0 1 0
  outer loop
   vertex 28.799 5.27079 2.5432
   vertex 28.499 5.27079 2.5432
   vertex 28.499 5.27079 2.7682
  endloop
 endfacet
 facet normal 0 1 -0
  outer loop
   vertex 28.799 5.27079 2.5432
   vertex 28.499 5.27079 2.7682
   vertex 28.799 5.27079 2.7682
  endloop
 endfacet
 facet normal 0 1 0
  outer loop
   vertex 29.099 5.27079 2.5432
   vertex 28.799 5.27079 2.5432
   vertex 28.799 5.27079 2.7682
  endloop
 endfacet
 facet normal 0 1 -0
  outer loop
   vertex 29.099 5.27079 2.5432
   vertex 28.799 5.27079 2.7682
   vertex 29.099 5.27079 2.7682
  endloop
 endfacet
 facet normal -1 0 0
  outer loop
   vertex 29.099 5.57079 2.5432
   vertex 29.099 5.27079 2.5432
   vertex 29.099 5.27079 2.7682
  endloop
 endfacet
 facet normal -1 0 0
  outer loop
   vertex 29.099 5.57079 2.5432
   vertex 29.099 5.27079 2.7682
   vertex 29.099 5.57079 2.7682
  endloop
 endfacet
 facet normal -1 0 0
  outer loop
   vertex 29.099 5.87079 2.5432
   vertex 29.099 5.57079 2.5432
   vertex 29.099 5.57079 2.7682
  endloop
 endfacet
 facet normal -1 0 0
  outer loop
   vertex 29.099 5.87079 2.5432
   vertex 29.099 5.57079 2.7682
   vertex 29.099 5.87079 2.7682
  endloop
 endfacet
 facet normal 0 -1 0
  outer loop
   vertex 28.799 5.87079 2.5432
   vertex 29.099 5.87079 2.5432
   vertex 29.099 5.87079 2.7682
  endloop
 endfacet
 facet normal 0 -1 0
  outer loop
   vertex 28.799 5.87079 2.5432
   vertex 29.099 5.87079 2.7682
   vertex 28.799 5.87079 2.7682
  endloop
 endfacet
 facet normal 0 -1 0
  outer loop
   vertex 28.499 5.87079 2.5432
   vertex 28.799 5.87079 2.5432
   vertex 28.799 5.87079 2.7682
  endloop
 endfacet
 facet normal 0 -1 0
  outer loop
   vertex 28.499 5.87079 2.5432
   vertex 28.799 5.87079 2.7682
   vertex 28.499 5.87079 2.7682
  endloop
 endfacet
 facet normal 0 -0 1
  outer loop
   vertex 29.099 5.27079 2.7682
   vertex 29.099 5.87079 2.7682
   vertex 28.499 5.87079 2.7682
  endloop
 endfacet
 facet normal 0 0 1
  outer loop
   vertex 29.099 5.27079 2.7682
   vertex 28.499 5.87079 2.7682
   vertex 28.499 5.27079 2.7682
  endloop
 endfacet
 facet normal 0 0 -1
  outer loop
   vertex 29.099 5.27079 2.4932
   vertex 28.499 5.27079 2.4932
   vertex 28.499 5.87079 2.4932
  endloop
 endfacet
 facet normal 0 0 -1
  outer loop
   vertex 29.099 5.27079 2.4932
   vertex 28.499 5.87079 2.4932
   vertex 29.099 5.87079 2.4932
  endloop
 endfacet
endsolid zone0
