solid zone0
 facet normal 0 0 1
  outer loop
   vertex 35.5474 35.9863 2.7682
   vertex 36.1574 35.9863 2.7682
   vertex 36.1574 36.0053 2.7682
  endloop
 endfacet
 facet normal 0 0 1
  outer loop
   vertex 35.5474 35.9863 2.7682
   vertex 36.1574 36.0053 2.7682
   vertex 35.5474 36.0053 2.7682
  endloop
 endfacet
 facet normal 0 1 0
  outer loop
   vertex 36.1574 36.0053 2.5182
   vertex 35.5474 36.0053 2.5182
   vertex 35.5474 36.0053 2.7682
  endloop
 endfacet
 facet normal 0 1 -0
  outer loop
   vertex 36.1574 36.0053 2.5182
   vertex 35.5474 36.0053 2.7682
   vertex 36.1574 36.0053 2.7682
  endloop
 endfacet
 facet normal 1 0 0
  outer loop
   vertex 36.1574 35.9863 2.5182
   vertex 36.1574 36.0053 2.5182
   vertex 36.1574 36.0053 2.7682
  endloop
 endfacet
 facet normal 1 0 0
  outer loop
   vertex 36.1574 35.9863 2.5182
   vertex 36.1574 36.0053 2.7682
   vertex 36.1574 35.9863 2.7682
  endloop
 endfacet
 facet normal 0 -1 0
  outer loop
   vertex 35.5474 35.9863 2.5182
   vertex 36.1574 35.9863 2.5182
   vertex 36.1574 35.9863 2.7682
  endloop
 endfacet
 facet normal 0 -1 0
  outer loop
   vertex 35.5474 35.9863 2.5182
   vertex 36.1574 35.9863 2.7682
   vertex 35.5474 35.9863 2.7682
  endloop
 endfacet
 facet normal -1 0 0
  outer loop
   vertex 35.5474 36.0053 2.5182
   vertex 35.5474 35.9863 2.5182
   vertex 35.5474 35.9863 2.7682
  endloop
 endfacet
 facet normal -1 0 0
  outer loop
   vertex 35.5474 36.0053 2.5182
   vertex 35.5474 35.9863 2.7682
   vertex 35.5474 36.0053 2.7682
  endloop
 endfacet
endsolid zone0
