solid zone0
 facet normal 1 0 0
  outer loop
   vertex 32.5155 32.8988 2.5432
   vertex 32.5155 33.1988 2.5432
   vertex 32.5155 33.1988 2.7682
  endloop
 endfacet
 facet normal 1 0 0
  outer loop
   vertex 32.5155 32.8988 2.5432
   vertex 32.5155 33.1988 2.7682
   vertex 32.5155 32.8988 2.7682
  endloop
 endfacet
 facet normal 1 0 0
  outer loop
   vertex 32.5155 32.5988 2.5432
   vertex 32.5155 32.8988 2.5432
   vertex 32.5155 32.8988 2.7682
  endloop
 endfacet
 facet normal 1 0 0
  outer loop
   vertex 32.5155 32.5988 2.5432
   vertex 32.5155 32.8988 2.7682
   vertex 32.5155 32.5988 2.7682
  endloop
 endfacet
 facet normal 0 1 0
  outer loop
   vertex 32.8155 32.5988 2.5432
   vertex 32.5155 32.5988 2.5432
   vertex 32.5155 32.5988 2.7682
  endloop
 endfacet
 facet normal 0 1 -0
  outer loop
   vertex 32.8155 32.5988 2.5432
   vertex 32.5155 32.5988 2.7682
   vertex 32.8155 32.5988 2.7682
  endloop
 endfacet
 facet normal 0 1 0
  outer loop
   vertex 33.1155 32.5988 2.5432
   vertex 32.8155 32.5988 2.5432
   vertex 32.8155 32.5988 2.7682
  endloop
 endfacet
 facet normal 0 1 -0
  outer loop
   vertex 33.1155 32.5988 2.5432
   vertex 32.8155 32.5988 2.7682
   vertex 33.1155 32.5988 2.7682
  endloop
 endfacet
 facet normal -1 0 0
  outer loop
   vertex 33.1155 32.8988 2.5432
   vertex 33.1155 32.5988 2.5432
   vertex 33.1155 32.5988 2.7682
  endloop
 endfacet
 facet normal -1 0 0
  outer loop
   vertex 33.1155 32.8988 2.5432
   vertex 33.1155 32.5988 2.7682
   vertex 33.1155 32.8988 2.7682
  endloop
 endfacet
 facet normal -1 0 0
  outer loop
   vertex 33.1155 33.1988 2.5432
   vertex 33.1155 32.8988 2.5432
   vertex 33.1155 32.8988 2.7682
  endloop
 endfacet
 facet normal -1 0 0
  outer loop
   vertex 33.1155 33.1988 2.5432
   vertex 33.1155 32.8988 2.7682
   vertex 33.1155 33.1988 2.7682
  endloop
 endfacet
 facet normal 0 -1 0
  outer loop
   vertex 32.8155 33.1988 2.5432
   vertex 33.1155 33.1988 2.5432
   vertex 33.1155 33.1988 2.7682
  endloop
 endfacet
 facet normal 0 -1 0
  outer loop
   vertex 32.8155 33.1988 2.5432
   vertex 33.1155 33.1988 2.7682
   vertex 32.8155 33.1988 2.7682
  endloop
 endfacet
 facet normal 0 -1 0
  outer loop
   vertex 32.5155 33.1988 2.5432
   vertex 32.8155 33.1988 2.5432
   vertex 32.8155 33.1988 2.7682
  endloop
 endfacet
 facet normal 0 -1 0
  outer loop
   vertex 32.5155 33.1988 2.5432
   vertex 32.8155 33.1988 2.7682
   vertex 32.5155 33.1988 2.7682
  endloop
 endfacet
 facet normal 0 -0 1
  outer loop
   vertex 33.1155 32.5988 2.7682
   vertex 33.1155 33.1988 2.7682
   vertex 32.5155 33.1988 2.7682
  endloop
 endfacet
 facet normal 0 0 1
  outer loop
   vertex 33.1155 32.5988 2.7682
   vertex 32.5155 33.1988 2.7682
   vertex 32.5155 32.5988 2.7682
  endloop
 endfacet
 facet normal 0 0 -1
  outer loop
   vertex 33.1155 32.5988 2.4932
   vertex 32.5155 32.5988 2.4932
   vertex 32.5155 33.1988 2.4932
  endloop
 endfacet
 facet normal 0 0 -1
  outer loop
   vertex 33.1155 32.5988 2.4932
   vertex 32.5155 33.1988 2.4932
   vertex 33.1155 33.1988 2.4932
  endloop
 endfacet
endsolid zone0
