solid zone0
 facet normal 0 -0 1
  outer loop
   vertex 10.1386 7.29786 2.7682
   vertex 10.1386 7.90786 2.7682
   vertex 10.1196 7.90786 2.7682
  endloop
 endfacet
 facet normal 0 0 1
  outer loop
   vertex 10.1386 7.29786 2.7682
   vertex 10.1196 7.90786 2.7682
   vertex 10.1196 7.29786 2.7682
  endloop
 endfacet
 facet normal -1 0 0
  outer loop
   vertex 10.1196 7.90786 2.5182
   vertex 10.1196 7.29786 2.5182
   vertex 10.1196 7.29786 2.7682
  endloop
 endfacet
 facet normal -1 0 0
  outer loop
   vertex 10.1196 7.90786 2.5182
   vertex 10.1196 7.29786 2.7682
   vertex 10.1196 7.90786 2.7682
  endloop
 endfacet
 facet normal 0 1 0
  outer loop
   vertex 10.1386 7.90786 2.5182
   vertex 10.1196 7.90786 2.5182
   vertex 10.1196 7.90786 2.7682
  endloop
 endfacet
 facet normal 0 1 -0
  outer loop
   vertex 10.1386 7.90786 2.5182
   vertex 10.1196 7.90786 2.7682
   vertex 10.1386 7.90786 2.7682
  endloop
 endfacet
 facet normal 1 0 0
  outer loop
   vertex 10.1386 7.29786 2.5182
   vertex 10.1386 7.90786 2.5182
   vertex 10.1386 7.90786 2.7682
  endloop
 endfacet
 facet normal 1 0 0
  outer loop
   vertex 10.1386 7.29786 2.5182
   vertex 10.1386 7.90786 2.7682
   vertex 10.1386 7.29786 2.7682
  endloop
 endfacet
 facet normal 0 -1 0
  outer loop
   vertex 10.1196 7.29786 2.5182
   vertex 10.1386 7.29786 2.5182
   vertex 10.1386 7.29786 2.7682
  endloop
 endfacet
 facet normal 0 -1 0
  outer loop
   vertex 10.1196 7.29786 2.5182
   vertex 10.1386 7.29786 2.7682
   vertex 10.1196 7.29786 2.7682
  endloop
 endfacet
endsolid zone0
