solid zone0
 facet normal 0 -0 -1
  outer loop
   vertex 14.7109 15.5695 2.7682
   vertex 14.7109 14.9695 2.7682
   vertex 14.6108 14.9695 2.7682
  endloop
 endfacet
 facet normal -0 0 -1
  outer loop
   vertex 14.7109 15.5695 2.7682
   vertex 14.6108 14.9695 2.7682
   vertex 14.6108 15.5695 2.7682
  endloop
 endfacet
 facet normal 1 0 0
  outer loop
   vertex 14.6108 14.9695 2.5182
   vertex 14.6108 15.5695 2.5182
   vertex 14.6108 15.5695 2.7682
  endloop
 endfacet
 facet normal 1 0 0
  outer loop
   vertex 14.6108 14.9695 2.5182
   vertex 14.6108 15.5695 2.7682
   vertex 14.6108 14.9695 2.7682
  endloop
 endfacet
 facet normal 0 1 0
  outer loop
   vertex 14.7109 14.9695 2.5182
   vertex 14.6108 14.9695 2.5182
   vertex 14.6108 14.9695 2.7682
  endloop
 endfacet
 facet normal 0 1 -0
  outer loop
   vertex 14.7109 14.9695 2.5182
   vertex 14.6108 14.9695 2.7682
   vertex 14.7109 14.9695 2.7682
  endloop
 endfacet
 facet normal -1 0 0
  outer loop
   vertex 14.7109 15.5695 2.5182
   vertex 14.7109 14.9695 2.5182
   vertex 14.7109 14.9695 2.7682
  endloop
 endfacet
 facet normal -1 0 0
  outer loop
   vertex 14.7109 15.5695 2.5182
   vertex 14.7109 14.9695 2.7682
   vertex 14.7109 15.5695 2.7682
  endloop
 endfacet
 facet normal 0 -1 0
  outer loop
   vertex 14.6108 15.5695 2.5182
   vertex 14.7109 15.5695 2.5182
   vertex 14.7109 15.5695 2.7682
  endloop
 endfacet
 facet normal 0 -1 0
  outer loop
   vertex 14.6108 15.5695 2.5182
   vertex 14.7109 15.5695 2.7682
   vertex 14.6108 15.5695 2.7682
  endloop
 endfacet
endsolid zone0
