solid zone0
 facet normal 1 0 0
  outer loop
   vertex 20.7377 15.554 2.5432
   vertex 20.7377 14.954 2.5432
   vertex 20.7377 14.954 2.4932
  endloop
 endfacet
 facet normal 1 0 0
  outer loop
   vertex 20.7377 15.554 2.5432
   vertex 20.7377 14.954 2.4932
   vertex 20.7377 15.554 2.4932
  endloop
 endfacet
 facet normal -0 -1 0
  outer loop
   vertex 20.7377 14.954 2.5432
   vertex 20.1377 14.954 2.5432
   vertex 20.1377 14.954 2.4932
  endloop
 endfacet
 facet normal 0 -1 -0
  outer loop
   vertex 20.7377 14.954 2.5432
   vertex 20.1377 14.954 2.4932
   vertex 20.7377 14.954 2.4932
  endloop
 endfacet
 facet normal -0 1 0
  outer loop
   vertex 20.1377 15.554 2.5432
   vertex 20.7377 15.554 2.5432
   vertex 20.7377 15.554 2.4932
  endloop
 endfacet
 facet normal 0 1 0
  outer loop
   vertex 20.1377 15.554 2.5432
   vertex 20.7377 15.554 2.4932
   vertex 20.1377 15.554 2.4932
  endloop
 endfacet
 facet normal -1 0 0
  outer loop
   vertex 20.1377 14.954 2.5432
   vertex 20.1377 15.554 2.5432
   vertex 20.1377 15.554 2.4932
  endloop
 endfacet
 facet normal -1 0 0
  outer loop
   vertex 20.1377 14.954 2.5432
   vertex 20.1377 15.554 2.4932
   vertex 20.1377 14.954 2.4932
  endloop
 endfacet
endsolid zone0
