solid zone0
 facet normal 1 0 0
  outer loop
   vertex 36.4141 5.89652 2.5432
   vertex 36.4141 5.29652 2.5432
   vertex 36.4141 5.29652 2.4932
  endloop
 endfacet
 facet normal 1 0 0
  outer loop
   vertex 36.4141 5.89652 2.5432
   vertex 36.4141 5.29652 2.4932
   vertex 36.4141 5.89652 2.4932
  endloop
 endfacet
 facet normal -0 -1 0
  outer loop
   vertex 36.4141 5.29652 2.5432
   vertex 35.8141 5.29652 2.5432
   vertex 35.8141 5.29652 2.4932
  endloop
 endfacet
 facet normal 0 -1 -0
  outer loop
   vertex 36.4141 5.29652 2.5432
   vertex 35.8141 5.29652 2.4932
   vertex 36.4141 5.29652 2.4932
  endloop
 endfacet
 facet normal -0 1 0
  outer loop
   vertex 35.8141 5.89652 2.5432
   vertex 36.4141 5.89652 2.5432
   vertex 36.4141 5.89652 2.4932
  endloop
 endfacet
 facet normal 0 1 0
  outer loop
   vertex 35.8141 5.89652 2.5432
   vertex 36.4141 5.89652 2.4932
   vertex 35.8141 5.89652 2.4932
  endloop
 endfacet
 facet normal -1 0 0
  outer loop
   vertex 35.8141 5.29652 2.5432
   vertex 35.8141 5.89652 2.5432
   vertex 35.8141 5.89652 2.4932
  endloop
 endfacet
 facet normal -1 0 0
  outer loop
   vertex 35.8141 5.29652 2.5432
   vertex 35.8141 5.89652 2.4932
   vertex 35.8141 5.29652 2.4932
  endloop
 endfacet
endsolid zone0
