solid zone0
 facet normal 1 0 0
  outer loop
   vertex 39.2552 12.7799 2.5432
   vertex 39.2552 12.1799 2.5432
   vertex 39.2552 12.1799 2.4932
  endloop
 endfacet
 facet normal 1 0 0
  outer loop
   vertex 39.2552 12.7799 2.5432
   vertex 39.2552 12.1799 2.4932
   vertex 39.2552 12.7799 2.4932
  endloop
 endfacet
 facet normal -0 -1 0
  outer loop
   vertex 39.2552 12.1799 2.5432
   vertex 38.6552 12.1799 2.5432
   vertex 38.6552 12.1799 2.4932
  endloop
 endfacet
 facet normal 0 -1 -0
  outer loop
   vertex 39.2552 12.1799 2.5432
   vertex 38.6552 12.1799 2.4932
   vertex 39.2552 12.1799 2.4932
  endloop
 endfacet
 facet normal -0 1 0
  outer loop
   vertex 38.6552 12.7799 2.5432
   vertex 39.2552 12.7799 2.5432
   vertex 39.2552 12.7799 2.4932
  endloop
 endfacet
 facet normal 0 1 0
  outer loop
   vertex 38.6552 12.7799 2.5432
   vertex 39.2552 12.7799 2.4932
   vertex 38.6552 12.7799 2.4932
  endloop
 endfacet
 facet normal -1 0 0
  outer loop
   vertex 38.6552 12.1799 2.5432
   vertex 38.6552 12.7799 2.5432
   vertex 38.6552 12.7799 2.4932
  endloop
 endfacet
 facet normal -1 0 0
  outer loop
   vertex 38.6552 12.1799 2.5432
   vertex 38.6552 12.7799 2.4932
   vertex 38.6552 12.1799 2.4932
  endloop
 endfacet
endsolid zone0
