solid zone0
 facet normal 1 0 0
  outer loop
   vertex 25.5298 13.3547 2.5432
   vertex 25.5298 12.7547 2.5432
   vertex 25.5298 12.7547 2.4932
  endloop
 endfacet
 facet normal 1 0 0
  outer loop
   vertex 25.5298 13.3547 2.5432
   vertex 25.5298 12.7547 2.4932
   vertex 25.5298 13.3547 2.4932
  endloop
 endfacet
 facet normal -0 -1 0
  outer loop
   vertex 25.5298 12.7547 2.5432
   vertex 24.9298 12.7547 2.5432
   vertex 24.9298 12.7547 2.4932
  endloop
 endfacet
 facet normal 0 -1 -0
  outer loop
   vertex 25.5298 12.7547 2.5432
   vertex 24.9298 12.7547 2.4932
   vertex 25.5298 12.7547 2.4932
  endloop
 endfacet
 facet normal -0 1 0
  outer loop
   vertex 24.9298 13.3547 2.5432
   vertex 25.5298 13.3547 2.5432
   vertex 25.5298 13.3547 2.4932
  endloop
 endfacet
 facet normal 0 1 0
  outer loop
   vertex 24.9298 13.3547 2.5432
   vertex 25.5298 13.3547 2.4932
   vertex 24.9298 13.3547 2.4932
  endloop
 endfacet
 facet normal -1 0 0
  outer loop
   vertex 24.9298 12.7547 2.5432
   vertex 24.9298 13.3547 2.5432
   vertex 24.9298 13.3547 2.4932
  endloop
 endfacet
 facet normal -1 0 0
  outer loop
   vertex 24.9298 12.7547 2.5432
   vertex 24.9298 13.3547 2.4932
   vertex 24.9298 12.7547 2.4932
  endloop
 endfacet
endsolid zone0
