solid zone0
 facet normal 1 0 0
  outer loop
   vertex 45.3292 17.4084 2.5432
   vertex 45.3292 16.8084 2.5432
   vertex 45.3292 16.8084 2.4932
  endloop
 endfacet
 facet normal 1 0 0
  outer loop
   vertex 45.3292 17.4084 2.5432
   vertex 45.3292 16.8084 2.4932
   vertex 45.3292 17.4084 2.4932
  endloop
 endfacet
 facet normal -0 -1 0
  outer loop
   vertex 45.3292 16.8084 2.5432
   vertex 44.7292 16.8084 2.5432
   vertex 44.7292 16.8084 2.4932
  endloop
 endfacet
 facet normal 0 -1 -0
  outer loop
   vertex 45.3292 16.8084 2.5432
   vertex 44.7292 16.8084 2.4932
   vertex 45.3292 16.8084 2.4932
  endloop
 endfacet
 facet normal -0 1 0
  outer loop
   vertex 44.7292 17.4084 2.5432
   vertex 45.3292 17.4084 2.5432
   vertex 45.3292 17.4084 2.4932
  endloop
 endfacet
 facet normal 0 1 0
  outer loop
   vertex 44.7292 17.4084 2.5432
   vertex 45.3292 17.4084 2.4932
   vertex 44.7292 17.4084 2.4932
  endloop
 endfacet
 facet normal -1 0 0
  outer loop
   vertex 44.7292 16.8084 2.5432
   vertex 44.7292 17.4084 2.5432
   vertex 44.7292 17.4084 2.4932
  endloop
 endfacet
 facet normal -1 0 0
  outer loop
   vertex 44.7292 16.8084 2.5432
   vertex 44.7292 17.4084 2.4932
   vertex 44.7292 16.8084 2.4932
  endloop
 endfacet
endsolid zone0
