solid zone0
 facet normal 1 0 0
  outer loop
   vertex 12.6465 5.87264 2.5432
   vertex 12.6465 5.27264 2.5432
   vertex 12.6465 5.27264 2.4932
  endloop
 endfacet
 facet normal 1 0 0
  outer loop
   vertex 12.6465 5.87264 2.5432
   vertex 12.6465 5.27264 2.4932
   vertex 12.6465 5.87264 2.4932
  endloop
 endfacet
 facet normal -0 -1 0
  outer loop
   vertex 12.6465 5.27264 2.5432
   vertex 12.0465 5.27264 2.5432
   vertex 12.0465 5.27264 2.4932
  endloop
 endfacet
 facet normal 0 -1 -0
  outer loop
   vertex 12.6465 5.27264 2.5432
   vertex 12.0465 5.27264 2.4932
   vertex 12.6465 5.27264 2.4932
  endloop
 endfacet
 facet normal -0 1 0
  outer loop
   vertex 12.0465 5.87264 2.5432
   vertex 12.6465 5.87264 2.5432
   vertex 12.6465 5.87264 2.4932
  endloop
 endfacet
 facet normal 0 1 0
  outer loop
   vertex 12.0465 5.87264 2.5432
   vertex 12.6465 5.87264 2.4932
   vertex 12.0465 5.87264 2.4932
  endloop
 endfacet
 facet normal -1 0 0
  outer loop
   vertex 12.0465 5.27264 2.5432
   vertex 12.0465 5.87264 2.5432
   vertex 12.0465 5.87264 2.4932
  endloop
 endfacet
 facet normal -1 0 0
  outer loop
   vertex 12.0465 5.27264 2.5432
   vertex 12.0465 5.87264 2.4932
   vertex 12.0465 5.27264 2.4932
  endloop
 endfacet
endsolid zone0
