solid zone0
 facet normal 1 0 0
  outer loop
   vertex 31.7996 15.6679 2.5432
   vertex 31.7996 15.0679 2.5432
   vertex 31.7996 15.0679 2.4932
  endloop
 endfacet
 facet normal 1 0 0
  outer loop
   vertex 31.7996 15.6679 2.5432
   vertex 31.7996 15.0679 2.4932
   vertex 31.7996 15.6679 2.4932
  endloop
 endfacet
 facet normal -0 -1 0
  outer loop
   vertex 31.7996 15.0679 2.5432
   vertex 31.1996 15.0679 2.5432
   vertex 31.1996 15.0679 2.4932
  endloop
 endfacet
 facet normal 0 -1 -0
  outer loop
   vertex 31.7996 15.0679 2.5432
   vertex 31.1996 15.0679 2.4932
   vertex 31.7996 15.0679 2.4932
  endloop
 endfacet
 facet normal -0 1 0
  outer loop
   vertex 31.1996 15.6679 2.5432
   vertex 31.7996 15.6679 2.5432
   vertex 31.7996 15.6679 2.4932
  endloop
 endfacet
 facet normal 0 1 0
  outer loop
   vertex 31.1996 15.6679 2.5432
   vertex 31.7996 15.6679 2.4932
   vertex 31.1996 15.6679 2.4932
  endloop
 endfacet
 facet normal -1 0 0
  outer loop
   vertex 31.1996 15.0679 2.5432
   vertex 31.1996 15.6679 2.5432
   vertex 31.1996 15.6679 2.4932
  endloop
 endfacet
 facet normal -1 0 0
  outer loop
   vertex 31.1996 15.0679 2.5432
   vertex 31.1996 15.6679 2.4932
   vertex 31.1996 15.0679 2.4932
  endloop
 endfacet
endsolid zone0
