solid zone0
 facet normal 1 0 0
  outer loop
   vertex 40.2604 13.0921 2.5432
   vertex 40.2604 12.7921 2.5432
   vertex 40.2604 12.7921 2.4932
  endloop
 endfacet
 facet normal 1 0 0
  outer loop
   vertex 40.2604 13.0921 2.5432
   vertex 40.2604 12.7921 2.4932
   vertex 40.2604 13.0921 2.4932
  endloop
 endfacet
 facet normal -0 -1 0
  outer loop
   vertex 40.2604 12.7921 2.5432
   vertex 39.9604 12.7921 2.5432
   vertex 39.9604 12.7921 2.4932
  endloop
 endfacet
 facet normal 0 -1 -0
  outer loop
   vertex 40.2604 12.7921 2.5432
   vertex 39.9604 12.7921 2.4932
   vertex 40.2604 12.7921 2.4932
  endloop
 endfacet
 facet normal -0 1 0
  outer loop
   vertex 39.9604 13.0921 2.5432
   vertex 40.2604 13.0921 2.5432
   vertex 40.2604 13.0921 2.4932
  endloop
 endfacet
 facet normal 0 1 0
  outer loop
   vertex 39.9604 13.0921 2.5432
   vertex 40.2604 13.0921 2.4932
   vertex 39.9604 13.0921 2.4932
  endloop
 endfacet
 facet normal -1 0 0
  outer loop
   vertex 39.9604 12.7921 2.5432
   vertex 39.9604 13.0921 2.5432
   vertex 39.9604 13.0921 2.4932
  endloop
 endfacet
 facet normal -1 0 0
  outer loop
   vertex 39.9604 12.7921 2.5432
   vertex 39.9604 13.0921 2.4932
   vertex 39.9604 12.7921 2.4932
  endloop
 endfacet
endsolid zone0
