solid zone0
 facet normal 1 0 0
  outer loop
   vertex 16.2903 8.32185 2.5432
   vertex 16.2903 7.72185 2.5432
   vertex 16.2903 7.72185 2.4932
  endloop
 endfacet
 facet normal 1 0 0
  outer loop
   vertex 16.2903 8.32185 2.5432
   vertex 16.2903 7.72185 2.4932
   vertex 16.2903 8.32185 2.4932
  endloop
 endfacet
 facet normal -0 -1 0
  outer loop
   vertex 16.2903 7.72185 2.5432
   vertex 15.6903 7.72185 2.5432
   vertex 15.6903 7.72185 2.4932
  endloop
 endfacet
 facet normal 0 -1 -0
  outer loop
   vertex 16.2903 7.72185 2.5432
   vertex 15.6903 7.72185 2.4932
   vertex 16.2903 7.72185 2.4932
  endloop
 endfacet
 facet normal -0 1 0
  outer loop
   vertex 15.6903 8.32185 2.5432
   vertex 16.2903 8.32185 2.5432
   vertex 16.2903 8.32185 2.4932
  endloop
 endfacet
 facet normal 0 1 0
  outer loop
   vertex 15.6903 8.32185 2.5432
   vertex 16.2903 8.32185 2.4932
   vertex 15.6903 8.32185 2.4932
  endloop
 endfacet
 facet normal -1 0 0
  outer loop
   vertex 15.6903 7.72185 2.5432
   vertex 15.6903 8.32185 2.5432
   vertex 15.6903 8.32185 2.4932
  endloop
 endfacet
 facet normal -1 0 0
  outer loop
   vertex 15.6903 7.72185 2.5432
   vertex 15.6903 8.32185 2.4932
   vertex 15.6903 7.72185 2.4932
  endloop
 endfacet
endsolid zone0
