solid zone0
 facet normal 0 -0 -1
  outer loop
   vertex 19.6392 12.1668 2.7682
   vertex 19.6392 11.5668 2.7682
   vertex 19.5392 11.5668 2.7682
  endloop
 endfacet
 facet normal -0 0 -1
  outer loop
   vertex 19.6392 12.1668 2.7682
   vertex 19.5392 11.5668 2.7682
   vertex 19.5392 12.1668 2.7682
  endloop
 endfacet
 facet normal 1 0 0
  outer loop
   vertex 19.5392 11.5668 2.5182
   vertex 19.5392 12.1668 2.5182
   vertex 19.5392 12.1668 2.7682
  endloop
 endfacet
 facet normal 1 0 0
  outer loop
   vertex 19.5392 11.5668 2.5182
   vertex 19.5392 12.1668 2.7682
   vertex 19.5392 11.5668 2.7682
  endloop
 endfacet
 facet normal 0 1 0
  outer loop
   vertex 19.6392 11.5668 2.5182
   vertex 19.5392 11.5668 2.5182
   vertex 19.5392 11.5668 2.7682
  endloop
 endfacet
 facet normal 0 1 -0
  outer loop
   vertex 19.6392 11.5668 2.5182
   vertex 19.5392 11.5668 2.7682
   vertex 19.6392 11.5668 2.7682
  endloop
 endfacet
 facet normal -1 0 0
  outer loop
   vertex 19.6392 12.1668 2.5182
   vertex 19.6392 11.5668 2.5182
   vertex 19.6392 11.5668 2.7682
  endloop
 endfacet
 facet normal -1 0 0
  outer loop
   vertex 19.6392 12.1668 2.5182
   vertex 19.6392 11.5668 2.7682
   vertex 19.6392 12.1668 2.7682
  endloop
 endfacet
 facet normal 0 -1 0
  outer loop
   vertex 19.5392 12.1668 2.5182
   vertex 19.6392 12.1668 2.5182
   vertex 19.6392 12.1668 2.7682
  endloop
 endfacet
 facet normal 0 -1 0
  outer loop
   vertex 19.5392 12.1668 2.5182
   vertex 19.6392 12.1668 2.7682
   vertex 19.5392 12.1668 2.7682
  endloop
 endfacet
endsolid zone0
