solid zone0
 facet normal 0 -0 -1
  outer loop
   vertex 41.2137 12.1841 2.7682
   vertex 41.2137 11.5841 2.7682
   vertex 41.1137 11.5841 2.7682
  endloop
 endfacet
 facet normal -0 0 -1
  outer loop
   vertex 41.2137 12.1841 2.7682
   vertex 41.1137 11.5841 2.7682
   vertex 41.1137 12.1841 2.7682
  endloop
 endfacet
 facet normal 1 0 0
  outer loop
   vertex 41.1137 11.5841 2.5182
   vertex 41.1137 12.1841 2.5182
   vertex 41.1137 12.1841 2.7682
  endloop
 endfacet
 facet normal 1 0 0
  outer loop
   vertex 41.1137 11.5841 2.5182
   vertex 41.1137 12.1841 2.7682
   vertex 41.1137 11.5841 2.7682
  endloop
 endfacet
 facet normal 0 1 0
  outer loop
   vertex 41.2137 11.5841 2.5182
   vertex 41.1137 11.5841 2.5182
   vertex 41.1137 11.5841 2.7682
  endloop
 endfacet
 facet normal 0 1 -0
  outer loop
   vertex 41.2137 11.5841 2.5182
   vertex 41.1137 11.5841 2.7682
   vertex 41.2137 11.5841 2.7682
  endloop
 endfacet
 facet normal -1 0 0
  outer loop
   vertex 41.2137 12.1841 2.5182
   vertex 41.2137 11.5841 2.5182
   vertex 41.2137 11.5841 2.7682
  endloop
 endfacet
 facet normal -1 0 0
  outer loop
   vertex 41.2137 12.1841 2.5182
   vertex 41.2137 11.5841 2.7682
   vertex 41.2137 12.1841 2.7682
  endloop
 endfacet
 facet normal 0 -1 0
  outer loop
   vertex 41.1137 12.1841 2.5182
   vertex 41.2137 12.1841 2.5182
   vertex 41.2137 12.1841 2.7682
  endloop
 endfacet
 facet normal 0 -1 0
  outer loop
   vertex 41.1137 12.1841 2.5182
   vertex 41.2137 12.1841 2.7682
   vertex 41.1137 12.1841 2.7682
  endloop
 endfacet
endsolid zone0
