solid zone0
 facet normal 0 0 1
  outer loop
   vertex 36.265 8.01993 2.7682
   vertex 36.865 8.01993 2.7682
   vertex 36.865 8.31993 2.7682
  endloop
 endfacet
 facet normal 0 0 1
  outer loop
   vertex 36.265 8.01993 2.7682
   vertex 36.865 8.31993 2.7682
   vertex 36.265 8.31993 2.7682
  endloop
 endfacet
 facet normal 0 1 0
  outer loop
   vertex 36.865 8.31993 2.5182
   vertex 36.265 8.31993 2.5182
   vertex 36.265 8.31993 2.7682
  endloop
 endfacet
 facet normal 0 1 -0
  outer loop
   vertex 36.865 8.31993 2.5182
   vertex 36.265 8.31993 2.7682
   vertex 36.865 8.31993 2.7682
  endloop
 endfacet
 facet normal 1 0 0
  outer loop
   vertex 36.865 8.01993 2.5182
   vertex 36.865 8.31993 2.5182
   vertex 36.865 8.31993 2.7682
  endloop
 endfacet
 facet normal 1 0 0
  outer loop
   vertex 36.865 8.01993 2.5182
   vertex 36.865 8.31993 2.7682
   vertex 36.865 8.01993 2.7682
  endloop
 endfacet
 facet normal 0 -1 0
  outer loop
   vertex 36.265 8.01993 2.5182
   vertex 36.865 8.01993 2.5182
   vertex 36.865 8.01993 2.7682
  endloop
 endfacet
 facet normal 0 -1 0
  outer loop
   vertex 36.265 8.01993 2.5182
   vertex 36.865 8.01993 2.7682
   vertex 36.265 8.01993 2.7682
  endloop
 endfacet
 facet normal -1 0 0
  outer loop
   vertex 36.265 8.31993 2.5182
   vertex 36.265 8.01993 2.5182
   vertex 36.265 8.01993 2.7682
  endloop
 endfacet
 facet normal -1 0 0
  outer loop
   vertex 36.265 8.31993 2.5182
   vertex 36.265 8.01993 2.7682
   vertex 36.265 8.31993 2.7682
  endloop
 endfacet
endsolid zone0
