solid zone0
 facet normal 0 0 1
  outer loop
   vertex 33.7959 3.14787 2.7682
   vertex 33.1859 3.14787 2.7682
   vertex 33.1859 3.12887 2.7682
  endloop
 endfacet
 facet normal 0 0 1
  outer loop
   vertex 33.7959 3.14787 2.7682
   vertex 33.1859 3.12887 2.7682
   vertex 33.7959 3.12887 2.7682
  endloop
 endfacet
 facet normal 0 -1 0
  outer loop
   vertex 33.1859 3.12887 2.5182
   vertex 33.7959 3.12887 2.5182
   vertex 33.7959 3.12887 2.7682
  endloop
 endfacet
 facet normal 0 -1 0
  outer loop
   vertex 33.1859 3.12887 2.5182
   vertex 33.7959 3.12887 2.7682
   vertex 33.1859 3.12887 2.7682
  endloop
 endfacet
 facet normal -1 0 0
  outer loop
   vertex 33.1859 3.14787 2.5182
   vertex 33.1859 3.12887 2.5182
   vertex 33.1859 3.12887 2.7682
  endloop
 endfacet
 facet normal -1 0 0
  outer loop
   vertex 33.1859 3.14787 2.5182
   vertex 33.1859 3.12887 2.7682
   vertex 33.1859 3.14787 2.7682
  endloop
 endfacet
 facet normal 0 1 0
  outer loop
   vertex 33.7959 3.14787 2.5182
   vertex 33.1859 3.14787 2.5182
   vertex 33.1859 3.14787 2.7682
  endloop
 endfacet
 facet normal 0 1 -0
  outer loop
   vertex 33.7959 3.14787 2.5182
   vertex 33.1859 3.14787 2.7682
   vertex 33.7959 3.14787 2.7682
  endloop
 endfacet
 facet normal 1 0 0
  outer loop
   vertex 33.7959 3.12887 2.5182
   vertex 33.7959 3.14787 2.5182
   vertex 33.7959 3.14787 2.7682
  endloop
 endfacet
 facet normal 1 0 0
  outer loop
   vertex 33.7959 3.12887 2.5182
   vertex 33.7959 3.14787 2.7682
   vertex 33.7959 3.12887 2.7682
  endloop
 endfacet
endsolid zone0
