solid zone0
 facet normal 0 0 1
  outer loop
   vertex 34.5511 16.6562 2.7682
   vertex 33.9511 16.6562 2.7682
   vertex 33.9511 16.5562 2.7682
  endloop
 endfacet
 facet normal 0 0 1
  outer loop
   vertex 34.5511 16.6562 2.7682
   vertex 33.9511 16.5562 2.7682
   vertex 34.5511 16.5562 2.7682
  endloop
 endfacet
 facet normal 0 -1 0
  outer loop
   vertex 33.9511 16.5562 2.5182
   vertex 34.5511 16.5562 2.5182
   vertex 34.5511 16.5562 2.7682
  endloop
 endfacet
 facet normal 0 -1 0
  outer loop
   vertex 33.9511 16.5562 2.5182
   vertex 34.5511 16.5562 2.7682
   vertex 33.9511 16.5562 2.7682
  endloop
 endfacet
 facet normal -1 0 0
  outer loop
   vertex 33.9511 16.6562 2.5182
   vertex 33.9511 16.5562 2.5182
   vertex 33.9511 16.5562 2.7682
  endloop
 endfacet
 facet normal -1 0 0
  outer loop
   vertex 33.9511 16.6562 2.5182
   vertex 33.9511 16.5562 2.7682
   vertex 33.9511 16.6562 2.7682
  endloop
 endfacet
 facet normal 0 1 0
  outer loop
   vertex 34.5511 16.6562 2.5182
   vertex 33.9511 16.6562 2.5182
   vertex 33.9511 16.6562 2.7682
  endloop
 endfacet
 facet normal 0 1 -0
  outer loop
   vertex 34.5511 16.6562 2.5182
   vertex 33.9511 16.6562 2.7682
   vertex 34.5511 16.6562 2.7682
  endloop
 endfacet
 facet normal 1 0 0
  outer loop
   vertex 34.5511 16.5562 2.5182
   vertex 34.5511 16.6562 2.5182
   vertex 34.5511 16.6562 2.7682
  endloop
 endfacet
 facet normal 1 0 0
  outer loop
   vertex 34.5511 16.5562 2.5182
   vertex 34.5511 16.6562 2.7682
   vertex 34.5511 16.5562 2.7682
  endloop
 endfacet
endsolid zone0
