solid zone0
 facet normal 0 0 1
  outer loop
   vertex 39.453 16.6493 2.7682
   vertex 38.853 16.6493 2.7682
   vertex 38.853 16.5493 2.7682
  endloop
 endfacet
 facet normal 0 0 1
  outer loop
   vertex 39.453 16.6493 2.7682
   vertex 38.853 16.5493 2.7682
   vertex 39.453 16.5493 2.7682
  endloop
 endfacet
 facet normal 0 -1 0
  outer loop
   vertex 38.853 16.5493 2.5182
   vertex 39.453 16.5493 2.5182
   vertex 39.453 16.5493 2.7682
  endloop
 endfacet
 facet normal 0 -1 0
  outer loop
   vertex 38.853 16.5493 2.5182
   vertex 39.453 16.5493 2.7682
   vertex 38.853 16.5493 2.7682
  endloop
 endfacet
 facet normal -1 0 0
  outer loop
   vertex 38.853 16.6493 2.5182
   vertex 38.853 16.5493 2.5182
   vertex 38.853 16.5493 2.7682
  endloop
 endfacet
 facet normal -1 0 0
  outer loop
   vertex 38.853 16.6493 2.5182
   vertex 38.853 16.5493 2.7682
   vertex 38.853 16.6493 2.7682
  endloop
 endfacet
 facet normal 0 1 0
  outer loop
   vertex 39.453 16.6493 2.5182
   vertex 38.853 16.6493 2.5182
   vertex 38.853 16.6493 2.7682
  endloop
 endfacet
 facet normal 0 1 -0
  outer loop
   vertex 39.453 16.6493 2.5182
   vertex 38.853 16.6493 2.7682
   vertex 39.453 16.6493 2.7682
  endloop
 endfacet
 facet normal 1 0 0
  outer loop
   vertex 39.453 16.5493 2.5182
   vertex 39.453 16.6493 2.5182
   vertex 39.453 16.6493 2.7682
  endloop
 endfacet
 facet normal 1 0 0
  outer loop
   vertex 39.453 16.5493 2.5182
   vertex 39.453 16.6493 2.7682
   vertex 39.453 16.5493 2.7682
  endloop
 endfacet
endsolid zone0
