solid zone0
 facet normal 0 0 1
  outer loop
   vertex 18.724 31.4466 2.7682
   vertex 17.224 31.4466 2.7682
   vertex 17.224 31.3466 2.7682
  endloop
 endfacet
 facet normal 0 0 1
  outer loop
   vertex 18.724 31.4466 2.7682
   vertex 17.224 31.3466 2.7682
   vertex 18.724 31.3466 2.7682
  endloop
 endfacet
 facet normal 0 -1 0
  outer loop
   vertex 17.224 31.3466 2.5182
   vertex 18.724 31.3466 2.5182
   vertex 18.724 31.3466 2.7682
  endloop
 endfacet
 facet normal 0 -1 0
  outer loop
   vertex 17.224 31.3466 2.5182
   vertex 18.724 31.3466 2.7682
   vertex 17.224 31.3466 2.7682
  endloop
 endfacet
 facet normal -1 0 0
  outer loop
   vertex 17.224 31.4466 2.5182
   vertex 17.224 31.3466 2.5182
   vertex 17.224 31.3466 2.7682
  endloop
 endfacet
 facet normal -1 0 0
  outer loop
   vertex 17.224 31.4466 2.5182
   vertex 17.224 31.3466 2.7682
   vertex 17.224 31.4466 2.7682
  endloop
 endfacet
 facet normal 0 1 0
  outer loop
   vertex 18.724 31.4466 2.5182
   vertex 17.224 31.4466 2.5182
   vertex 17.224 31.4466 2.7682
  endloop
 endfacet
 facet normal 0 1 -0
  outer loop
   vertex 18.724 31.4466 2.5182
   vertex 17.224 31.4466 2.7682
   vertex 18.724 31.4466 2.7682
  endloop
 endfacet
 facet normal 1 0 0
  outer loop
   vertex 18.724 31.3466 2.5182
   vertex 18.724 31.4466 2.5182
   vertex 18.724 31.4466 2.7682
  endloop
 endfacet
 facet normal 1 0 0
  outer loop
   vertex 18.724 31.3466 2.5182
   vertex 18.724 31.4466 2.7682
   vertex 18.724 31.3466 2.7682
  endloop
 endfacet
endsolid zone0
