solid zone0
 facet normal 1 0 0
  outer loop
   vertex 43.7969 28.616 2.5432
   vertex 43.7969 28.766 2.5432
   vertex 43.7969 28.766 2.7682
  endloop
 endfacet
 facet normal 1 0 0
  outer loop
   vertex 43.7969 28.616 2.5432
   vertex 43.7969 28.766 2.7682
   vertex 43.7969 28.616 2.7682
  endloop
 endfacet
 facet normal 1 0 0
  outer loop
   vertex 43.7969 28.466 2.5432
   vertex 43.7969 28.616 2.5432
   vertex 43.7969 28.616 2.7682
  endloop
 endfacet
 facet normal 1 0 0
  outer loop
   vertex 43.7969 28.466 2.5432
   vertex 43.7969 28.616 2.7682
   vertex 43.7969 28.466 2.7682
  endloop
 endfacet
 facet normal 0 1 0
  outer loop
   vertex 43.9469 28.466 2.5432
   vertex 43.7969 28.466 2.5432
   vertex 43.7969 28.466 2.7682
  endloop
 endfacet
 facet normal 0 1 -0
  outer loop
   vertex 43.9469 28.466 2.5432
   vertex 43.7969 28.466 2.7682
   vertex 43.9469 28.466 2.7682
  endloop
 endfacet
 facet normal 0 1 0
  outer loop
   vertex 44.0969 28.466 2.5432
   vertex 43.9469 28.466 2.5432
   vertex 43.9469 28.466 2.7682
  endloop
 endfacet
 facet normal 0 1 -0
  outer loop
   vertex 44.0969 28.466 2.5432
   vertex 43.9469 28.466 2.7682
   vertex 44.0969 28.466 2.7682
  endloop
 endfacet
 facet normal -1 0 0
  outer loop
   vertex 44.0969 28.616 2.5432
   vertex 44.0969 28.466 2.5432
   vertex 44.0969 28.466 2.7682
  endloop
 endfacet
 facet normal -1 0 0
  outer loop
   vertex 44.0969 28.616 2.5432
   vertex 44.0969 28.466 2.7682
   vertex 44.0969 28.616 2.7682
  endloop
 endfacet
 facet normal -1 0 0
  outer loop
   vertex 44.0969 28.766 2.5432
   vertex 44.0969 28.616 2.5432
   vertex 44.0969 28.616 2.7682
  endloop
 endfacet
 facet normal -1 0 0
  outer loop
   vertex 44.0969 28.766 2.5432
   vertex 44.0969 28.616 2.7682
   vertex 44.0969 28.766 2.7682
  endloop
 endfacet
 facet normal 0 -1 0
  outer loop
   vertex 43.9469 28.766 2.5432
   vertex 44.0969 28.766 2.5432
   vertex 44.0969 28.766 2.7682
  endloop
 endfacet
 facet normal 0 -1 0
  outer loop
   vertex 43.9469 28.766 2.5432
   vertex 44.0969 28.766 2.7682
   vertex 43.9469 28.766 2.7682
  endloop
 endfacet
 facet normal 0 -1 0
  outer loop
   vertex 43.7969 28.766 2.5432
   vertex 43.9469 28.766 2.5432
   vertex 43.9469 28.766 2.7682
  endloop
 endfacet
 facet normal 0 -1 0
  outer loop
   vertex 43.7969 28.766 2.5432
   vertex 43.9469 28.766 2.7682
   vertex 43.7969 28.766 2.7682
  endloop
 endfacet
 facet normal 0 -0 1
  outer loop
   vertex 44.0969 28.466 2.7682
   vertex 44.0969 28.766 2.7682
   vertex 43.7969 28.766 2.7682
  endloop
 endfacet
 facet normal 0 0 1
  outer loop
   vertex 44.0969 28.466 2.7682
   vertex 43.7969 28.766 2.7682
   vertex 43.7969 28.466 2.7682
  endloop
 endfacet
 facet normal 0 0 -1
  outer loop
   vertex 44.0969 28.466 2.4932
   vertex 43.7969 28.466 2.4932
   vertex 43.7969 28.766 2.4932
  endloop
 endfacet
 facet normal 0 0 -1
  outer loop
   vertex 44.0969 28.466 2.4932
   vertex 43.7969 28.766 2.4932
   vertex 44.0969 28.766 2.4932
  endloop
 endfacet
endsolid zone0
