solid zone0
 facet normal 1 0 0
  outer loop
   vertex 32.1585 8.03331 2.5432
   vertex 32.1585 8.33331 2.5432
   vertex 32.1585 8.33331 2.7682
  endloop
 endfacet
 facet normal 1 0 0
  outer loop
   vertex 32.1585 8.03331 2.5432
   vertex 32.1585 8.33331 2.7682
   vertex 32.1585 8.03331 2.7682
  endloop
 endfacet
 facet normal 1 0 0
  outer loop
   vertex 32.1585 7.73331 2.5432
   vertex 32.1585 8.03331 2.5432
   vertex 32.1585 8.03331 2.7682
  endloop
 endfacet
 facet normal 1 0 0
  outer loop
   vertex 32.1585 7.73331 2.5432
   vertex 32.1585 8.03331 2.7682
   vertex 32.1585 7.73331 2.7682
  endloop
 endfacet
 facet normal 0 1 0
  outer loop
   vertex 32.4585 7.73331 2.5432
   vertex 32.1585 7.73331 2.5432
   vertex 32.1585 7.73331 2.7682
  endloop
 endfacet
 facet normal 0 1 -0
  outer loop
   vertex 32.4585 7.73331 2.5432
   vertex 32.1585 7.73331 2.7682
   vertex 32.4585 7.73331 2.7682
  endloop
 endfacet
 facet normal 0 1 0
  outer loop
   vertex 32.7585 7.73331 2.5432
   vertex 32.4585 7.73331 2.5432
   vertex 32.4585 7.73331 2.7682
  endloop
 endfacet
 facet normal 0 1 -0
  outer loop
   vertex 32.7585 7.73331 2.5432
   vertex 32.4585 7.73331 2.7682
   vertex 32.7585 7.73331 2.7682
  endloop
 endfacet
 facet normal -1 0 0
  outer loop
   vertex 32.7585 8.03331 2.5432
   vertex 32.7585 7.73331 2.5432
   vertex 32.7585 7.73331 2.7682
  endloop
 endfacet
 facet normal -1 0 0
  outer loop
   vertex 32.7585 8.03331 2.5432
   vertex 32.7585 7.73331 2.7682
   vertex 32.7585 8.03331 2.7682
  endloop
 endfacet
 facet normal -1 0 0
  outer loop
   vertex 32.7585 8.33331 2.5432
   vertex 32.7585 8.03331 2.5432
   vertex 32.7585 8.03331 2.7682
  endloop
 endfacet
 facet normal -1 0 0
  outer loop
   vertex 32.7585 8.33331 2.5432
   vertex 32.7585 8.03331 2.7682
   vertex 32.7585 8.33331 2.7682
  endloop
 endfacet
 facet normal 0 -1 0
  outer loop
   vertex 32.4585 8.33331 2.5432
   vertex 32.7585 8.33331 2.5432
   vertex 32.7585 8.33331 2.7682
  endloop
 endfacet
 facet normal 0 -1 0
  outer loop
   vertex 32.4585 8.33331 2.5432
   vertex 32.7585 8.33331 2.7682
   vertex 32.4585 8.33331 2.7682
  endloop
 endfacet
 facet normal 0 -1 0
  outer loop
   vertex 32.1585 8.33331 2.5432
   vertex 32.4585 8.33331 2.5432
   vertex 32.4585 8.33331 2.7682
  endloop
 endfacet
 facet normal 0 -1 0
  outer loop
   vertex 32.1585 8.33331 2.5432
   vertex 32.4585 8.33331 2.7682
   vertex 32.1585 8.33331 2.7682
  endloop
 endfacet
 facet normal 0 -0 1
  outer loop
   vertex 32.7585 7.73331 2.7682
   vertex 32.7585 8.33331 2.7682
   vertex 32.1585 8.33331 2.7682
  endloop
 endfacet
 facet normal 0 0 1
  outer loop
   vertex 32.7585 7.73331 2.7682
   vertex 32.1585 8.33331 2.7682
   vertex 32.1585 7.73331 2.7682
  endloop
 endfacet
 facet normal 0 0 -1
  outer loop
   vertex 32.7585 7.73331 2.4932
   vertex 32.1585 7.73331 2.4932
   vertex 32.1585 8.33331 2.4932
  endloop
 endfacet
 facet normal 0 0 -1
  outer loop
   vertex 32.7585 7.73331 2.4932
   vertex 32.1585 8.33331 2.4932
   vertex 32.7585 8.33331 2.4932
  endloop
 endfacet
endsolid zone0
