solid zone0
 facet normal 0 0 1
  outer loop
   vertex 19.7008 35.9863 2.7682
   vertex 20.3108 35.9863 2.7682
   vertex 20.3108 36.0053 2.7682
  endloop
 endfacet
 facet normal 0 0 1
  outer loop
   vertex 19.7008 35.9863 2.7682
   vertex 20.3108 36.0053 2.7682
   vertex 19.7008 36.0053 2.7682
  endloop
 endfacet
 facet normal 0 1 0
  outer loop
   vertex 20.3108 36.0053 2.5182
   vertex 19.7008 36.0053 2.5182
   vertex 19.7008 36.0053 2.7682
  endloop
 endfacet
 facet normal 0 1 -0
  outer loop
   vertex 20.3108 36.0053 2.5182
   vertex 19.7008 36.0053 2.7682
   vertex 20.3108 36.0053 2.7682
  endloop
 endfacet
 facet normal 1 0 0
  outer loop
   vertex 20.3108 35.9863 2.5182
   vertex 20.3108 36.0053 2.5182
   vertex 20.3108 36.0053 2.7682
  endloop
 endfacet
 facet normal 1 0 0
  outer loop
   vertex 20.3108 35.9863 2.5182
   vertex 20.3108 36.0053 2.7682
   vertex 20.3108 35.9863 2.7682
  endloop
 endfacet
 facet normal 0 -1 0
  outer loop
   vertex 19.7008 35.9863 2.5182
   vertex 20.3108 35.9863 2.5182
   vertex 20.3108 35.9863 2.7682
  endloop
 endfacet
 facet normal 0 -1 0
  outer loop
   vertex 19.7008 35.9863 2.5182
   vertex 20.3108 35.9863 2.7682
   vertex 19.7008 35.9863 2.7682
  endloop
 endfacet
 facet normal -1 0 0
  outer loop
   vertex 19.7008 36.0053 2.5182
   vertex 19.7008 35.9863 2.5182
   vertex 19.7008 35.9863 2.7682
  endloop
 endfacet
 facet normal -1 0 0
  outer loop
   vertex 19.7008 36.0053 2.5182
   vertex 19.7008 35.9863 2.7682
   vertex 19.7008 36.0053 2.7682
  endloop
 endfacet
endsolid zone0
