solid zone0
 facet normal 0 -0 -1
  outer loop
   vertex 11.6717 25.9733 2.7682
   vertex 11.6717 25.3733 2.7682
   vertex 11.3717 25.3733 2.7682
  endloop
 endfacet
 facet normal -0 0 -1
  outer loop
   vertex 11.6717 25.9733 2.7682
   vertex 11.3717 25.3733 2.7682
   vertex 11.3717 25.9733 2.7682
  endloop
 endfacet
 facet normal 1 0 0
  outer loop
   vertex 11.3717 25.3733 2.5182
   vertex 11.3717 25.9733 2.5182
   vertex 11.3717 25.9733 2.7682
  endloop
 endfacet
 facet normal 1 0 0
  outer loop
   vertex 11.3717 25.3733 2.5182
   vertex 11.3717 25.9733 2.7682
   vertex 11.3717 25.3733 2.7682
  endloop
 endfacet
 facet normal 0 1 0
  outer loop
   vertex 11.6717 25.3733 2.5182
   vertex 11.3717 25.3733 2.5182
   vertex 11.3717 25.3733 2.7682
  endloop
 endfacet
 facet normal 0 1 -0
  outer loop
   vertex 11.6717 25.3733 2.5182
   vertex 11.3717 25.3733 2.7682
   vertex 11.6717 25.3733 2.7682
  endloop
 endfacet
 facet normal -1 0 0
  outer loop
   vertex 11.6717 25.9733 2.5182
   vertex 11.6717 25.3733 2.5182
   vertex 11.6717 25.3733 2.7682
  endloop
 endfacet
 facet normal -1 0 0
  outer loop
   vertex 11.6717 25.9733 2.5182
   vertex 11.6717 25.3733 2.7682
   vertex 11.6717 25.9733 2.7682
  endloop
 endfacet
 facet normal 0 -1 0
  outer loop
   vertex 11.3717 25.9733 2.5182
   vertex 11.6717 25.9733 2.5182
   vertex 11.6717 25.9733 2.7682
  endloop
 endfacet
 facet normal 0 -1 0
  outer loop
   vertex 11.3717 25.9733 2.5182
   vertex 11.6717 25.9733 2.7682
   vertex 11.3717 25.9733 2.7682
  endloop
 endfacet
endsolid zone0
