solid zone0
 facet normal 0 -0 -1
  outer loop
   vertex 29.7363 15.6735 2.7682
   vertex 29.7363 15.0735 2.7682
   vertex 29.6363 15.0735 2.7682
  endloop
 endfacet
 facet normal -0 0 -1
  outer loop
   vertex 29.7363 15.6735 2.7682
   vertex 29.6363 15.0735 2.7682
   vertex 29.6363 15.6735 2.7682
  endloop
 endfacet
 facet normal 1 0 0
  outer loop
   vertex 29.6363 15.0735 2.5182
   vertex 29.6363 15.6735 2.5182
   vertex 29.6363 15.6735 2.7682
  endloop
 endfacet
 facet normal 1 0 0
  outer loop
   vertex 29.6363 15.0735 2.5182
   vertex 29.6363 15.6735 2.7682
   vertex 29.6363 15.0735 2.7682
  endloop
 endfacet
 facet normal 0 1 0
  outer loop
   vertex 29.7363 15.0735 2.5182
   vertex 29.6363 15.0735 2.5182
   vertex 29.6363 15.0735 2.7682
  endloop
 endfacet
 facet normal 0 1 -0
  outer loop
   vertex 29.7363 15.0735 2.5182
   vertex 29.6363 15.0735 2.7682
   vertex 29.7363 15.0735 2.7682
  endloop
 endfacet
 facet normal -1 0 0
  outer loop
   vertex 29.7363 15.6735 2.5182
   vertex 29.7363 15.0735 2.5182
   vertex 29.7363 15.0735 2.7682
  endloop
 endfacet
 facet normal -1 0 0
  outer loop
   vertex 29.7363 15.6735 2.5182
   vertex 29.7363 15.0735 2.7682
   vertex 29.7363 15.6735 2.7682
  endloop
 endfacet
 facet normal 0 -1 0
  outer loop
   vertex 29.6363 15.6735 2.5182
   vertex 29.7363 15.6735 2.5182
   vertex 29.7363 15.6735 2.7682
  endloop
 endfacet
 facet normal 0 -1 0
  outer loop
   vertex 29.6363 15.6735 2.5182
   vertex 29.7363 15.6735 2.7682
   vertex 29.6363 15.6735 2.7682
  endloop
 endfacet
endsolid zone0
