solid zone0
 facet normal 0 -0 1
  outer loop
   vertex 6.32933 15.2212 2.7682
   vertex 6.32933 15.8312 2.7682
   vertex 6.31033 15.8312 2.7682
  endloop
 endfacet
 facet normal 0 0 1
  outer loop
   vertex 6.32933 15.2212 2.7682
   vertex 6.31033 15.8312 2.7682
   vertex 6.31033 15.2212 2.7682
  endloop
 endfacet
 facet normal -1 0 0
  outer loop
   vertex 6.31033 15.8312 2.5182
   vertex 6.31033 15.2212 2.5182
   vertex 6.31033 15.2212 2.7682
  endloop
 endfacet
 facet normal -1 0 0
  outer loop
   vertex 6.31033 15.8312 2.5182
   vertex 6.31033 15.2212 2.7682
   vertex 6.31033 15.8312 2.7682
  endloop
 endfacet
 facet normal 0 1 0
  outer loop
   vertex 6.32933 15.8312 2.5182
   vertex 6.31033 15.8312 2.5182
   vertex 6.31033 15.8312 2.7682
  endloop
 endfacet
 facet normal 0 1 -0
  outer loop
   vertex 6.32933 15.8312 2.5182
   vertex 6.31033 15.8312 2.7682
   vertex 6.32933 15.8312 2.7682
  endloop
 endfacet
 facet normal 1 0 0
  outer loop
   vertex 6.32933 15.2212 2.5182
   vertex 6.32933 15.8312 2.5182
   vertex 6.32933 15.8312 2.7682
  endloop
 endfacet
 facet normal 1 0 0
  outer loop
   vertex 6.32933 15.2212 2.5182
   vertex 6.32933 15.8312 2.7682
   vertex 6.32933 15.2212 2.7682
  endloop
 endfacet
 facet normal 0 -1 0
  outer loop
   vertex 6.31033 15.2212 2.5182
   vertex 6.32933 15.2212 2.5182
   vertex 6.32933 15.2212 2.7682
  endloop
 endfacet
 facet normal 0 -1 0
  outer loop
   vertex 6.31033 15.2212 2.5182
   vertex 6.32933 15.2212 2.7682
   vertex 6.31033 15.2212 2.7682
  endloop
 endfacet
endsolid zone0
