solid zone0
 facet normal 1 0 0
  outer loop
   vertex 23.6223 8.01993 2.5432
   vertex 23.6223 8.31993 2.5432
   vertex 23.6223 8.31993 2.7682
  endloop
 endfacet
 facet normal 1 0 0
  outer loop
   vertex 23.6223 8.01993 2.5432
   vertex 23.6223 8.31993 2.7682
   vertex 23.6223 8.01993 2.7682
  endloop
 endfacet
 facet normal 1 0 0
  outer loop
   vertex 23.6223 7.71993 2.5432
   vertex 23.6223 8.01993 2.5432
   vertex 23.6223 8.01993 2.7682
  endloop
 endfacet
 facet normal 1 0 0
  outer loop
   vertex 23.6223 7.71993 2.5432
   vertex 23.6223 8.01993 2.7682
   vertex 23.6223 7.71993 2.7682
  endloop
 endfacet
 facet normal 0 1 0
  outer loop
   vertex 23.9223 7.71993 2.5432
   vertex 23.6223 7.71993 2.5432
   vertex 23.6223 7.71993 2.7682
  endloop
 endfacet
 facet normal 0 1 -0
  outer loop
   vertex 23.9223 7.71993 2.5432
   vertex 23.6223 7.71993 2.7682
   vertex 23.9223 7.71993 2.7682
  endloop
 endfacet
 facet normal 0 1 0
  outer loop
   vertex 24.2223 7.71993 2.5432
   vertex 23.9223 7.71993 2.5432
   vertex 23.9223 7.71993 2.7682
  endloop
 endfacet
 facet normal 0 1 -0
  outer loop
   vertex 24.2223 7.71993 2.5432
   vertex 23.9223 7.71993 2.7682
   vertex 24.2223 7.71993 2.7682
  endloop
 endfacet
 facet normal -1 0 0
  outer loop
   vertex 24.2223 8.01993 2.5432
   vertex 24.2223 7.71993 2.5432
   vertex 24.2223 7.71993 2.7682
  endloop
 endfacet
 facet normal -1 0 0
  outer loop
   vertex 24.2223 8.01993 2.5432
   vertex 24.2223 7.71993 2.7682
   vertex 24.2223 8.01993 2.7682
  endloop
 endfacet
 facet normal -1 0 0
  outer loop
   vertex 24.2223 8.31993 2.5432
   vertex 24.2223 8.01993 2.5432
   vertex 24.2223 8.01993 2.7682
  endloop
 endfacet
 facet normal -1 0 0
  outer loop
   vertex 24.2223 8.31993 2.5432
   vertex 24.2223 8.01993 2.7682
   vertex 24.2223 8.31993 2.7682
  endloop
 endfacet
 facet normal 0 -1 0
  outer loop
   vertex 23.9223 8.31993 2.5432
   vertex 24.2223 8.31993 2.5432
   vertex 24.2223 8.31993 2.7682
  endloop
 endfacet
 facet normal 0 -1 0
  outer loop
   vertex 23.9223 8.31993 2.5432
   vertex 24.2223 8.31993 2.7682
   vertex 23.9223 8.31993 2.7682
  endloop
 endfacet
 facet normal 0 -1 0
  outer loop
   vertex 23.6223 8.31993 2.5432
   vertex 23.9223 8.31993 2.5432
   vertex 23.9223 8.31993 2.7682
  endloop
 endfacet
 facet normal 0 -1 0
  outer loop
   vertex 23.6223 8.31993 2.5432
   vertex 23.9223 8.31993 2.7682
   vertex 23.6223 8.31993 2.7682
  endloop
 endfacet
 facet normal 0 -0 1
  outer loop
   vertex 24.2223 7.71993 2.7682
   vertex 24.2223 8.31993 2.7682
   vertex 23.6223 8.31993 2.7682
  endloop
 endfacet
 facet normal 0 0 1
  outer loop
   vertex 24.2223 7.71993 2.7682
   vertex 23.6223 8.31993 2.7682
   vertex 23.6223 7.71993 2.7682
  endloop
 endfacet
 facet normal 0 0 -1
  outer loop
   vertex 24.2223 7.71993 2.4932
   vertex 23.6223 7.71993 2.4932
   vertex 23.6223 8.31993 2.4932
  endloop
 endfacet
 facet normal 0 0 -1
  outer loop
   vertex 24.2223 7.71993 2.4932
   vertex 23.6223 8.31993 2.4932
   vertex 24.2223 8.31993 2.4932
  endloop
 endfacet
endsolid zone0
