solid zone0
 facet normal 1 0 0
  outer loop
   vertex 24.5594 15.2595 2.5432
   vertex 24.5594 15.5595 2.5432
   vertex 24.5594 15.5595 2.7682
  endloop
 endfacet
 facet normal 1 0 0
  outer loop
   vertex 24.5594 15.2595 2.5432
   vertex 24.5594 15.5595 2.7682
   vertex 24.5594 15.2595 2.7682
  endloop
 endfacet
 facet normal 1 0 0
  outer loop
   vertex 24.5594 14.9595 2.5432
   vertex 24.5594 15.2595 2.5432
   vertex 24.5594 15.2595 2.7682
  endloop
 endfacet
 facet normal 1 0 0
  outer loop
   vertex 24.5594 14.9595 2.5432
   vertex 24.5594 15.2595 2.7682
   vertex 24.5594 14.9595 2.7682
  endloop
 endfacet
 facet normal 0 1 0
  outer loop
   vertex 24.8594 14.9595 2.5432
   vertex 24.5594 14.9595 2.5432
   vertex 24.5594 14.9595 2.7682
  endloop
 endfacet
 facet normal 0 1 -0
  outer loop
   vertex 24.8594 14.9595 2.5432
   vertex 24.5594 14.9595 2.7682
   vertex 24.8594 14.9595 2.7682
  endloop
 endfacet
 facet normal 0 1 0
  outer loop
   vertex 25.1594 14.9595 2.5432
   vertex 24.8594 14.9595 2.5432
   vertex 24.8594 14.9595 2.7682
  endloop
 endfacet
 facet normal 0 1 -0
  outer loop
   vertex 25.1594 14.9595 2.5432
   vertex 24.8594 14.9595 2.7682
   vertex 25.1594 14.9595 2.7682
  endloop
 endfacet
 facet normal -1 0 0
  outer loop
   vertex 25.1594 15.2595 2.5432
   vertex 25.1594 14.9595 2.5432
   vertex 25.1594 14.9595 2.7682
  endloop
 endfacet
 facet normal -1 0 0
  outer loop
   vertex 25.1594 15.2595 2.5432
   vertex 25.1594 14.9595 2.7682
   vertex 25.1594 15.2595 2.7682
  endloop
 endfacet
 facet normal -1 0 0
  outer loop
   vertex 25.1594 15.5595 2.5432
   vertex 25.1594 15.2595 2.5432
   vertex 25.1594 15.2595 2.7682
  endloop
 endfacet
 facet normal -1 0 0
  outer loop
   vertex 25.1594 15.5595 2.5432
   vertex 25.1594 15.2595 2.7682
   vertex 25.1594 15.5595 2.7682
  endloop
 endfacet
 facet normal 0 -1 0
  outer loop
   vertex 24.8594 15.5595 2.5432
   vertex 25.1594 15.5595 2.5432
   vertex 25.1594 15.5595 2.7682
  endloop
 endfacet
 facet normal 0 -1 0
  outer loop
   vertex 24.8594 15.5595 2.5432
   vertex 25.1594 15.5595 2.7682
   vertex 24.8594 15.5595 2.7682
  endloop
 endfacet
 facet normal 0 -1 0
  outer loop
   vertex 24.5594 15.5595 2.5432
   vertex 24.8594 15.5595 2.5432
   vertex 24.8594 15.5595 2.7682
  endloop
 endfacet
 facet normal 0 -1 0
  outer loop
   vertex 24.5594 15.5595 2.5432
   vertex 24.8594 15.5595 2.7682
   vertex 24.5594 15.5595 2.7682
  endloop
 endfacet
 facet normal 0 -0 1
  outer loop
   vertex 25.1594 14.9595 2.7682
   vertex 25.1594 15.5595 2.7682
   vertex 24.5594 15.5595 2.7682
  endloop
 endfacet
 facet normal 0 0 1
  outer loop
   vertex 25.1594 14.9595 2.7682
   vertex 24.5594 15.5595 2.7682
   vertex 24.5594 14.9595 2.7682
  endloop
 endfacet
 facet normal 0 0 -1
  outer loop
   vertex 25.1594 14.9595 2.4932
   vertex 24.5594 14.9595 2.4932
   vertex 24.5594 15.5595 2.4932
  endloop
 endfacet
 facet normal 0 0 -1
  outer loop
   vertex 25.1594 14.9595 2.4932
   vertex 24.5594 15.5595 2.4932
   vertex 25.1594 15.5595 2.4932
  endloop
 endfacet
endsolid zone0
