solid zone0
 facet normal 0 -0 1
  outer loop
   vertex 10.1386 4.9615 2.7682
   vertex 10.1386 5.5715 2.7682
   vertex 10.1196 5.5715 2.7682
  endloop
 endfacet
 facet normal 0 0 1
  outer loop
   vertex 10.1386 4.9615 2.7682
   vertex 10.1196 5.5715 2.7682
   vertex 10.1196 4.9615 2.7682
  endloop
 endfacet
 facet normal -1 0 0
  outer loop
   vertex 10.1196 5.5715 2.5182
   vertex 10.1196 4.9615 2.5182
   vertex 10.1196 4.9615 2.7682
  endloop
 endfacet
 facet normal -1 0 0
  outer loop
   vertex 10.1196 5.5715 2.5182
   vertex 10.1196 4.9615 2.7682
   vertex 10.1196 5.5715 2.7682
  endloop
 endfacet
 facet normal 0 1 0
  outer loop
   vertex 10.1386 5.5715 2.5182
   vertex 10.1196 5.5715 2.5182
   vertex 10.1196 5.5715 2.7682
  endloop
 endfacet
 facet normal 0 1 -0
  outer loop
   vertex 10.1386 5.5715 2.5182
   vertex 10.1196 5.5715 2.7682
   vertex 10.1386 5.5715 2.7682
  endloop
 endfacet
 facet normal 1 0 0
  outer loop
   vertex 10.1386 4.9615 2.5182
   vertex 10.1386 5.5715 2.5182
   vertex 10.1386 5.5715 2.7682
  endloop
 endfacet
 facet normal 1 0 0
  outer loop
   vertex 10.1386 4.9615 2.5182
   vertex 10.1386 5.5715 2.7682
   vertex 10.1386 4.9615 2.7682
  endloop
 endfacet
 facet normal 0 -1 0
  outer loop
   vertex 10.1196 4.9615 2.5182
   vertex 10.1386 4.9615 2.5182
   vertex 10.1386 4.9615 2.7682
  endloop
 endfacet
 facet normal 0 -1 0
  outer loop
   vertex 10.1196 4.9615 2.5182
   vertex 10.1386 4.9615 2.7682
   vertex 10.1196 4.9615 2.7682
  endloop
 endfacet
endsolid zone0
