solid zone0
 facet normal 0 -0 -1
  outer loop
   vertex 12.4435 28.5502 2.7682
   vertex 12.4435 28.2002 2.7682
   vertex 12.2935 28.2002 2.7682
  endloop
 endfacet
 facet normal -0 0 -1
  outer loop
   vertex 12.4435 28.5502 2.7682
   vertex 12.2935 28.2002 2.7682
   vertex 12.2935 28.5502 2.7682
  endloop
 endfacet
 facet normal 1 0 0
  outer loop
   vertex 12.2935 28.2002 2.5182
   vertex 12.2935 28.5502 2.5182
   vertex 12.2935 28.5502 2.7682
  endloop
 endfacet
 facet normal 1 0 0
  outer loop
   vertex 12.2935 28.2002 2.5182
   vertex 12.2935 28.5502 2.7682
   vertex 12.2935 28.2002 2.7682
  endloop
 endfacet
 facet normal 0 1 0
  outer loop
   vertex 12.4435 28.2002 2.5182
   vertex 12.2935 28.2002 2.5182
   vertex 12.2935 28.2002 2.7682
  endloop
 endfacet
 facet normal 0 1 -0
  outer loop
   vertex 12.4435 28.2002 2.5182
   vertex 12.2935 28.2002 2.7682
   vertex 12.4435 28.2002 2.7682
  endloop
 endfacet
 facet normal -1 0 0
  outer loop
   vertex 12.4435 28.5502 2.5182
   vertex 12.4435 28.2002 2.5182
   vertex 12.4435 28.2002 2.7682
  endloop
 endfacet
 facet normal -1 0 0
  outer loop
   vertex 12.4435 28.5502 2.5182
   vertex 12.4435 28.2002 2.7682
   vertex 12.4435 28.5502 2.7682
  endloop
 endfacet
 facet normal 0 -1 0
  outer loop
   vertex 12.2935 28.5502 2.5182
   vertex 12.4435 28.5502 2.5182
   vertex 12.4435 28.5502 2.7682
  endloop
 endfacet
 facet normal 0 -1 0
  outer loop
   vertex 12.2935 28.5502 2.5182
   vertex 12.4435 28.5502 2.7682
   vertex 12.2935 28.5502 2.7682
  endloop
 endfacet
endsolid zone0
