solid zone0
 facet normal 1 0 0
  outer loop
   vertex 39.4736 8.03014 2.5432
   vertex 39.4736 8.33014 2.5432
   vertex 39.4736 8.33014 2.7682
  endloop
 endfacet
 facet normal 1 0 0
  outer loop
   vertex 39.4736 8.03014 2.5432
   vertex 39.4736 8.33014 2.7682
   vertex 39.4736 8.03014 2.7682
  endloop
 endfacet
 facet normal 1 0 0
  outer loop
   vertex 39.4736 7.73014 2.5432
   vertex 39.4736 8.03014 2.5432
   vertex 39.4736 8.03014 2.7682
  endloop
 endfacet
 facet normal 1 0 0
  outer loop
   vertex 39.4736 7.73014 2.5432
   vertex 39.4736 8.03014 2.7682
   vertex 39.4736 7.73014 2.7682
  endloop
 endfacet
 facet normal 0 1 0
  outer loop
   vertex 39.7736 7.73014 2.5432
   vertex 39.4736 7.73014 2.5432
   vertex 39.4736 7.73014 2.7682
  endloop
 endfacet
 facet normal 0 1 -0
  outer loop
   vertex 39.7736 7.73014 2.5432
   vertex 39.4736 7.73014 2.7682
   vertex 39.7736 7.73014 2.7682
  endloop
 endfacet
 facet normal 0 1 0
  outer loop
   vertex 40.0736 7.73014 2.5432
   vertex 39.7736 7.73014 2.5432
   vertex 39.7736 7.73014 2.7682
  endloop
 endfacet
 facet normal 0 1 -0
  outer loop
   vertex 40.0736 7.73014 2.5432
   vertex 39.7736 7.73014 2.7682
   vertex 40.0736 7.73014 2.7682
  endloop
 endfacet
 facet normal -1 0 0
  outer loop
   vertex 40.0736 8.03014 2.5432
   vertex 40.0736 7.73014 2.5432
   vertex 40.0736 7.73014 2.7682
  endloop
 endfacet
 facet normal -1 0 0
  outer loop
   vertex 40.0736 8.03014 2.5432
   vertex 40.0736 7.73014 2.7682
   vertex 40.0736 8.03014 2.7682
  endloop
 endfacet
 facet normal -1 0 0
  outer loop
   vertex 40.0736 8.33014 2.5432
   vertex 40.0736 8.03014 2.5432
   vertex 40.0736 8.03014 2.7682
  endloop
 endfacet
 facet normal -1 0 0
  outer loop
   vertex 40.0736 8.33014 2.5432
   vertex 40.0736 8.03014 2.7682
   vertex 40.0736 8.33014 2.7682
  endloop
 endfacet
 facet normal 0 -1 0
  outer loop
   vertex 39.7736 8.33014 2.5432
   vertex 40.0736 8.33014 2.5432
   vertex 40.0736 8.33014 2.7682
  endloop
 endfacet
 facet normal 0 -1 0
  outer loop
   vertex 39.7736 8.33014 2.5432
   vertex 40.0736 8.33014 2.7682
   vertex 39.7736 8.33014 2.7682
  endloop
 endfacet
 facet normal 0 -1 0
  outer loop
   vertex 39.4736 8.33014 2.5432
   vertex 39.7736 8.33014 2.5432
   vertex 39.7736 8.33014 2.7682
  endloop
 endfacet
 facet normal 0 -1 0
  outer loop
   vertex 39.4736 8.33014 2.5432
   vertex 39.7736 8.33014 2.7682
   vertex 39.4736 8.33014 2.7682
  endloop
 endfacet
 facet normal 0 -0 1
  outer loop
   vertex 40.0736 7.73014 2.7682
   vertex 40.0736 8.33014 2.7682
   vertex 39.4736 8.33014 2.7682
  endloop
 endfacet
 facet normal 0 0 1
  outer loop
   vertex 40.0736 7.73014 2.7682
   vertex 39.4736 8.33014 2.7682
   vertex 39.4736 7.73014 2.7682
  endloop
 endfacet
 facet normal 0 0 -1
  outer loop
   vertex 40.0736 7.73014 2.4932
   vertex 39.4736 7.73014 2.4932
   vertex 39.4736 8.33014 2.4932
  endloop
 endfacet
 facet normal 0 0 -1
  outer loop
   vertex 40.0736 7.73014 2.4932
   vertex 39.4736 8.33014 2.4932
   vertex 40.0736 8.33014 2.4932
  endloop
 endfacet
endsolid zone0
