solid zone0
 facet normal 1 0 0
  outer loop
   vertex 15.5294 12.9088 2.5432
   vertex 15.5294 13.0588 2.5432
   vertex 15.5294 13.0588 2.7682
  endloop
 endfacet
 facet normal 1 0 0
  outer loop
   vertex 15.5294 12.9088 2.5432
   vertex 15.5294 13.0588 2.7682
   vertex 15.5294 12.9088 2.7682
  endloop
 endfacet
 facet normal 1 0 0
  outer loop
   vertex 15.5294 12.7588 2.5432
   vertex 15.5294 12.9088 2.5432
   vertex 15.5294 12.9088 2.7682
  endloop
 endfacet
 facet normal 1 0 0
  outer loop
   vertex 15.5294 12.7588 2.5432
   vertex 15.5294 12.9088 2.7682
   vertex 15.5294 12.7588 2.7682
  endloop
 endfacet
 facet normal 0 1 0
  outer loop
   vertex 15.6794 12.7588 2.5432
   vertex 15.5294 12.7588 2.5432
   vertex 15.5294 12.7588 2.7682
  endloop
 endfacet
 facet normal 0 1 -0
  outer loop
   vertex 15.6794 12.7588 2.5432
   vertex 15.5294 12.7588 2.7682
   vertex 15.6794 12.7588 2.7682
  endloop
 endfacet
 facet normal 0 1 0
  outer loop
   vertex 15.8294 12.7588 2.5432
   vertex 15.6794 12.7588 2.5432
   vertex 15.6794 12.7588 2.7682
  endloop
 endfacet
 facet normal 0 1 -0
  outer loop
   vertex 15.8294 12.7588 2.5432
   vertex 15.6794 12.7588 2.7682
   vertex 15.8294 12.7588 2.7682
  endloop
 endfacet
 facet normal -1 0 0
  outer loop
   vertex 15.8294 12.9088 2.5432
   vertex 15.8294 12.7588 2.5432
   vertex 15.8294 12.7588 2.7682
  endloop
 endfacet
 facet normal -1 0 0
  outer loop
   vertex 15.8294 12.9088 2.5432
   vertex 15.8294 12.7588 2.7682
   vertex 15.8294 12.9088 2.7682
  endloop
 endfacet
 facet normal -1 0 0
  outer loop
   vertex 15.8294 13.0588 2.5432
   vertex 15.8294 12.9088 2.5432
   vertex 15.8294 12.9088 2.7682
  endloop
 endfacet
 facet normal -1 0 0
  outer loop
   vertex 15.8294 13.0588 2.5432
   vertex 15.8294 12.9088 2.7682
   vertex 15.8294 13.0588 2.7682
  endloop
 endfacet
 facet normal 0 -1 0
  outer loop
   vertex 15.6794 13.0588 2.5432
   vertex 15.8294 13.0588 2.5432
   vertex 15.8294 13.0588 2.7682
  endloop
 endfacet
 facet normal 0 -1 0
  outer loop
   vertex 15.6794 13.0588 2.5432
   vertex 15.8294 13.0588 2.7682
   vertex 15.6794 13.0588 2.7682
  endloop
 endfacet
 facet normal 0 -1 0
  outer loop
   vertex 15.5294 13.0588 2.5432
   vertex 15.6794 13.0588 2.5432
   vertex 15.6794 13.0588 2.7682
  endloop
 endfacet
 facet normal 0 -1 0
  outer loop
   vertex 15.5294 13.0588 2.5432
   vertex 15.6794 13.0588 2.7682
   vertex 15.5294 13.0588 2.7682
  endloop
 endfacet
 facet normal 0 -0 1
  outer loop
   vertex 15.8294 12.7588 2.7682
   vertex 15.8294 13.0588 2.7682
   vertex 15.5294 13.0588 2.7682
  endloop
 endfacet
 facet normal 0 0 1
  outer loop
   vertex 15.8294 12.7588 2.7682
   vertex 15.5294 13.0588 2.7682
   vertex 15.5294 12.7588 2.7682
  endloop
 endfacet
 facet normal 0 0 -1
  outer loop
   vertex 15.8294 12.7588 2.4932
   vertex 15.5294 12.7588 2.4932
   vertex 15.5294 13.0588 2.4932
  endloop
 endfacet
 facet normal 0 0 -1
  outer loop
   vertex 15.8294 12.7588 2.4932
   vertex 15.5294 13.0588 2.4932
   vertex 15.8294 13.0588 2.4932
  endloop
 endfacet
endsolid zone0
