solid zone0
 facet normal 0 -0 -1
  outer loop
   vertex 21.8483 16.1676 2.7682
   vertex 21.8483 15.5676 2.7682
   vertex 21.7483 15.5676 2.7682
  endloop
 endfacet
 facet normal -0 0 -1
  outer loop
   vertex 21.8483 16.1676 2.7682
   vertex 21.7483 15.5676 2.7682
   vertex 21.7483 16.1676 2.7682
  endloop
 endfacet
 facet normal 1 0 0
  outer loop
   vertex 21.7483 15.5676 2.5182
   vertex 21.7483 16.1676 2.5182
   vertex 21.7483 16.1676 2.7682
  endloop
 endfacet
 facet normal 1 0 0
  outer loop
   vertex 21.7483 15.5676 2.5182
   vertex 21.7483 16.1676 2.7682
   vertex 21.7483 15.5676 2.7682
  endloop
 endfacet
 facet normal 0 1 0
  outer loop
   vertex 21.8483 15.5676 2.5182
   vertex 21.7483 15.5676 2.5182
   vertex 21.7483 15.5676 2.7682
  endloop
 endfacet
 facet normal 0 1 -0
  outer loop
   vertex 21.8483 15.5676 2.5182
   vertex 21.7483 15.5676 2.7682
   vertex 21.8483 15.5676 2.7682
  endloop
 endfacet
 facet normal -1 0 0
  outer loop
   vertex 21.8483 16.1676 2.5182
   vertex 21.8483 15.5676 2.5182
   vertex 21.8483 15.5676 2.7682
  endloop
 endfacet
 facet normal -1 0 0
  outer loop
   vertex 21.8483 16.1676 2.5182
   vertex 21.8483 15.5676 2.7682
   vertex 21.8483 16.1676 2.7682
  endloop
 endfacet
 facet normal 0 -1 0
  outer loop
   vertex 21.7483 16.1676 2.5182
   vertex 21.8483 16.1676 2.5182
   vertex 21.8483 16.1676 2.7682
  endloop
 endfacet
 facet normal 0 -1 0
  outer loop
   vertex 21.7483 16.1676 2.5182
   vertex 21.8483 16.1676 2.7682
   vertex 21.7483 16.1676 2.7682
  endloop
 endfacet
endsolid zone0
