solid zone0
 facet normal 0 -0 -1
  outer loop
   vertex 11.1425 34.5594 2.7682
   vertex 11.1425 33.0594 2.7682
   vertex 11.0825 33.0594 2.7682
  endloop
 endfacet
 facet normal -0 0 -1
  outer loop
   vertex 11.1425 34.5594 2.7682
   vertex 11.0825 33.0594 2.7682
   vertex 11.0825 34.5594 2.7682
  endloop
 endfacet
 facet normal 1 0 0
  outer loop
   vertex 11.0825 33.0594 2.5182
   vertex 11.0825 34.5594 2.5182
   vertex 11.0825 34.5594 2.7682
  endloop
 endfacet
 facet normal 1 0 0
  outer loop
   vertex 11.0825 33.0594 2.5182
   vertex 11.0825 34.5594 2.7682
   vertex 11.0825 33.0594 2.7682
  endloop
 endfacet
 facet normal 0 1 0
  outer loop
   vertex 11.1425 33.0594 2.5182
   vertex 11.0825 33.0594 2.5182
   vertex 11.0825 33.0594 2.7682
  endloop
 endfacet
 facet normal 0 1 -0
  outer loop
   vertex 11.1425 33.0594 2.5182
   vertex 11.0825 33.0594 2.7682
   vertex 11.1425 33.0594 2.7682
  endloop
 endfacet
 facet normal -1 0 0
  outer loop
   vertex 11.1425 34.5594 2.5182
   vertex 11.1425 33.0594 2.5182
   vertex 11.1425 33.0594 2.7682
  endloop
 endfacet
 facet normal -1 0 0
  outer loop
   vertex 11.1425 34.5594 2.5182
   vertex 11.1425 33.0594 2.7682
   vertex 11.1425 34.5594 2.7682
  endloop
 endfacet
 facet normal 0 -1 0
  outer loop
   vertex 11.0825 34.5594 2.5182
   vertex 11.1425 34.5594 2.5182
   vertex 11.1425 34.5594 2.7682
  endloop
 endfacet
 facet normal 0 -1 0
  outer loop
   vertex 11.0825 34.5594 2.5182
   vertex 11.1425 34.5594 2.7682
   vertex 11.0825 34.5594 2.7682
  endloop
 endfacet
endsolid zone0
