solid zone0
 facet normal 0 -0 -1
  outer loop
   vertex 14.7089 12.1513 2.7682
   vertex 14.7089 11.5513 2.7682
   vertex 14.6089 11.5513 2.7682
  endloop
 endfacet
 facet normal -0 0 -1
  outer loop
   vertex 14.7089 12.1513 2.7682
   vertex 14.6089 11.5513 2.7682
   vertex 14.6089 12.1513 2.7682
  endloop
 endfacet
 facet normal 1 0 0
  outer loop
   vertex 14.6089 11.5513 2.5182
   vertex 14.6089 12.1513 2.5182
   vertex 14.6089 12.1513 2.7682
  endloop
 endfacet
 facet normal 1 0 0
  outer loop
   vertex 14.6089 11.5513 2.5182
   vertex 14.6089 12.1513 2.7682
   vertex 14.6089 11.5513 2.7682
  endloop
 endfacet
 facet normal 0 1 0
  outer loop
   vertex 14.7089 11.5513 2.5182
   vertex 14.6089 11.5513 2.5182
   vertex 14.6089 11.5513 2.7682
  endloop
 endfacet
 facet normal 0 1 -0
  outer loop
   vertex 14.7089 11.5513 2.5182
   vertex 14.6089 11.5513 2.7682
   vertex 14.7089 11.5513 2.7682
  endloop
 endfacet
 facet normal -1 0 0
  outer loop
   vertex 14.7089 12.1513 2.5182
   vertex 14.7089 11.5513 2.5182
   vertex 14.7089 11.5513 2.7682
  endloop
 endfacet
 facet normal -1 0 0
  outer loop
   vertex 14.7089 12.1513 2.5182
   vertex 14.7089 11.5513 2.7682
   vertex 14.7089 12.1513 2.7682
  endloop
 endfacet
 facet normal 0 -1 0
  outer loop
   vertex 14.6089 12.1513 2.5182
   vertex 14.7089 12.1513 2.5182
   vertex 14.7089 12.1513 2.7682
  endloop
 endfacet
 facet normal 0 -1 0
  outer loop
   vertex 14.6089 12.1513 2.5182
   vertex 14.7089 12.1513 2.7682
   vertex 14.6089 12.1513 2.7682
  endloop
 endfacet
endsolid zone0
