solid zone0
 facet normal 0 -0 1
  outer loop
   vertex 44.554 26.0849 2.7682
   vertex 44.554 26.6849 2.7682
   vertex 44.254 26.6849 2.7682
  endloop
 endfacet
 facet normal 0 0 1
  outer loop
   vertex 44.554 26.0849 2.7682
   vertex 44.254 26.6849 2.7682
   vertex 44.254 26.0849 2.7682
  endloop
 endfacet
 facet normal -1 0 0
  outer loop
   vertex 44.254 26.6849 2.5182
   vertex 44.254 26.0849 2.5182
   vertex 44.254 26.0849 2.7682
  endloop
 endfacet
 facet normal -1 0 0
  outer loop
   vertex 44.254 26.6849 2.5182
   vertex 44.254 26.0849 2.7682
   vertex 44.254 26.6849 2.7682
  endloop
 endfacet
 facet normal 0 1 0
  outer loop
   vertex 44.554 26.6849 2.5182
   vertex 44.254 26.6849 2.5182
   vertex 44.254 26.6849 2.7682
  endloop
 endfacet
 facet normal 0 1 -0
  outer loop
   vertex 44.554 26.6849 2.5182
   vertex 44.254 26.6849 2.7682
   vertex 44.554 26.6849 2.7682
  endloop
 endfacet
 facet normal 1 0 0
  outer loop
   vertex 44.554 26.0849 2.5182
   vertex 44.554 26.6849 2.5182
   vertex 44.554 26.6849 2.7682
  endloop
 endfacet
 facet normal 1 0 0
  outer loop
   vertex 44.554 26.0849 2.5182
   vertex 44.554 26.6849 2.7682
   vertex 44.554 26.0849 2.7682
  endloop
 endfacet
 facet normal 0 -1 0
  outer loop
   vertex 44.254 26.0849 2.5182
   vertex 44.554 26.0849 2.5182
   vertex 44.554 26.0849 2.7682
  endloop
 endfacet
 facet normal 0 -1 0
  outer loop
   vertex 44.254 26.0849 2.5182
   vertex 44.554 26.0849 2.7682
   vertex 44.254 26.0849 2.7682
  endloop
 endfacet
endsolid zone0
