solid zone0
 facet normal 0 -0 -1
  outer loop
   vertex 24.6031 32.1758 2.7682
   vertex 24.6031 30.3758 2.7682
   vertex 24.5031 30.3758 2.7682
  endloop
 endfacet
 facet normal -0 0 -1
  outer loop
   vertex 24.6031 32.1758 2.7682
   vertex 24.5031 30.3758 2.7682
   vertex 24.5031 32.1758 2.7682
  endloop
 endfacet
 facet normal 1 0 0
  outer loop
   vertex 24.5031 30.3758 2.5182
   vertex 24.5031 32.1758 2.5182
   vertex 24.5031 32.1758 2.7682
  endloop
 endfacet
 facet normal 1 0 0
  outer loop
   vertex 24.5031 30.3758 2.5182
   vertex 24.5031 32.1758 2.7682
   vertex 24.5031 30.3758 2.7682
  endloop
 endfacet
 facet normal 0 1 0
  outer loop
   vertex 24.6031 30.3758 2.5182
   vertex 24.5031 30.3758 2.5182
   vertex 24.5031 30.3758 2.7682
  endloop
 endfacet
 facet normal 0 1 -0
  outer loop
   vertex 24.6031 30.3758 2.5182
   vertex 24.5031 30.3758 2.7682
   vertex 24.6031 30.3758 2.7682
  endloop
 endfacet
 facet normal -1 0 0
  outer loop
   vertex 24.6031 32.1758 2.5182
   vertex 24.6031 30.3758 2.5182
   vertex 24.6031 30.3758 2.7682
  endloop
 endfacet
 facet normal -1 0 0
  outer loop
   vertex 24.6031 32.1758 2.5182
   vertex 24.6031 30.3758 2.7682
   vertex 24.6031 32.1758 2.7682
  endloop
 endfacet
 facet normal 0 -1 0
  outer loop
   vertex 24.5031 32.1758 2.5182
   vertex 24.6031 32.1758 2.5182
   vertex 24.6031 32.1758 2.7682
  endloop
 endfacet
 facet normal 0 -1 0
  outer loop
   vertex 24.5031 32.1758 2.5182
   vertex 24.6031 32.1758 2.7682
   vertex 24.5031 32.1758 2.7682
  endloop
 endfacet
endsolid zone0
