solid zone0
 facet normal 1 0 0
  outer loop
   vertex 38.8203 15.3805 2.5432
   vertex 38.8203 15.6805 2.5432
   vertex 38.8203 15.6805 2.7682
  endloop
 endfacet
 facet normal 1 0 0
  outer loop
   vertex 38.8203 15.3805 2.5432
   vertex 38.8203 15.6805 2.7682
   vertex 38.8203 15.3805 2.7682
  endloop
 endfacet
 facet normal 1 0 0
  outer loop
   vertex 38.8203 15.0805 2.5432
   vertex 38.8203 15.3805 2.5432
   vertex 38.8203 15.3805 2.7682
  endloop
 endfacet
 facet normal 1 0 0
  outer loop
   vertex 38.8203 15.0805 2.5432
   vertex 38.8203 15.3805 2.7682
   vertex 38.8203 15.0805 2.7682
  endloop
 endfacet
 facet normal 0 1 0
  outer loop
   vertex 39.1203 15.0805 2.5432
   vertex 38.8203 15.0805 2.5432
   vertex 38.8203 15.0805 2.7682
  endloop
 endfacet
 facet normal 0 1 -0
  outer loop
   vertex 39.1203 15.0805 2.5432
   vertex 38.8203 15.0805 2.7682
   vertex 39.1203 15.0805 2.7682
  endloop
 endfacet
 facet normal 0 1 0
  outer loop
   vertex 39.4203 15.0805 2.5432
   vertex 39.1203 15.0805 2.5432
   vertex 39.1203 15.0805 2.7682
  endloop
 endfacet
 facet normal 0 1 -0
  outer loop
   vertex 39.4203 15.0805 2.5432
   vertex 39.1203 15.0805 2.7682
   vertex 39.4203 15.0805 2.7682
  endloop
 endfacet
 facet normal -1 0 0
  outer loop
   vertex 39.4203 15.3805 2.5432
   vertex 39.4203 15.0805 2.5432
   vertex 39.4203 15.0805 2.7682
  endloop
 endfacet
 facet normal -1 0 0
  outer loop
   vertex 39.4203 15.3805 2.5432
   vertex 39.4203 15.0805 2.7682
   vertex 39.4203 15.3805 2.7682
  endloop
 endfacet
 facet normal -1 0 0
  outer loop
   vertex 39.4203 15.6805 2.5432
   vertex 39.4203 15.3805 2.5432
   vertex 39.4203 15.3805 2.7682
  endloop
 endfacet
 facet normal -1 0 0
  outer loop
   vertex 39.4203 15.6805 2.5432
   vertex 39.4203 15.3805 2.7682
   vertex 39.4203 15.6805 2.7682
  endloop
 endfacet
 facet normal 0 -1 0
  outer loop
   vertex 39.1203 15.6805 2.5432
   vertex 39.4203 15.6805 2.5432
   vertex 39.4203 15.6805 2.7682
  endloop
 endfacet
 facet normal 0 -1 0
  outer loop
   vertex 39.1203 15.6805 2.5432
   vertex 39.4203 15.6805 2.7682
   vertex 39.1203 15.6805 2.7682
  endloop
 endfacet
 facet normal 0 -1 0
  outer loop
   vertex 38.8203 15.6805 2.5432
   vertex 39.1203 15.6805 2.5432
   vertex 39.1203 15.6805 2.7682
  endloop
 endfacet
 facet normal 0 -1 0
  outer loop
   vertex 38.8203 15.6805 2.5432
   vertex 39.1203 15.6805 2.7682
   vertex 38.8203 15.6805 2.7682
  endloop
 endfacet
 facet normal 0 -0 1
  outer loop
   vertex 39.4203 15.0805 2.7682
   vertex 39.4203 15.6805 2.7682
   vertex 38.8203 15.6805 2.7682
  endloop
 endfacet
 facet normal 0 0 1
  outer loop
   vertex 39.4203 15.0805 2.7682
   vertex 38.8203 15.6805 2.7682
   vertex 38.8203 15.0805 2.7682
  endloop
 endfacet
 facet normal 0 0 -1
  outer loop
   vertex 39.4203 15.0805 2.4932
   vertex 38.8203 15.0805 2.4932
   vertex 38.8203 15.6805 2.4932
  endloop
 endfacet
 facet normal 0 0 -1
  outer loop
   vertex 39.4203 15.0805 2.4932
   vertex 38.8203 15.6805 2.4932
   vertex 39.4203 15.6805 2.4932
  endloop
 endfacet
endsolid zone0
