solid zone0
 facet normal 0 -0 -1
  outer loop
   vertex 45.6614 5.5713 2.7682
   vertex 45.6614 4.9613 2.7682
   vertex 45.6424 4.9613 2.7682
  endloop
 endfacet
 facet normal -0 0 -1
  outer loop
   vertex 45.6614 5.5713 2.7682
   vertex 45.6424 4.9613 2.7682
   vertex 45.6424 5.5713 2.7682
  endloop
 endfacet
 facet normal 1 0 0
  outer loop
   vertex 45.6424 4.9613 2.5182
   vertex 45.6424 5.5713 2.5182
   vertex 45.6424 5.5713 2.7682
  endloop
 endfacet
 facet normal 1 0 0
  outer loop
   vertex 45.6424 4.9613 2.5182
   vertex 45.6424 5.5713 2.7682
   vertex 45.6424 4.9613 2.7682
  endloop
 endfacet
 facet normal 0 1 0
  outer loop
   vertex 45.6614 4.9613 2.5182
   vertex 45.6424 4.9613 2.5182
   vertex 45.6424 4.9613 2.7682
  endloop
 endfacet
 facet normal 0 1 -0
  outer loop
   vertex 45.6614 4.9613 2.5182
   vertex 45.6424 4.9613 2.7682
   vertex 45.6614 4.9613 2.7682
  endloop
 endfacet
 facet normal -1 0 0
  outer loop
   vertex 45.6614 5.5713 2.5182
   vertex 45.6614 4.9613 2.5182
   vertex 45.6614 4.9613 2.7682
  endloop
 endfacet
 facet normal -1 0 0
  outer loop
   vertex 45.6614 5.5713 2.5182
   vertex 45.6614 4.9613 2.7682
   vertex 45.6614 5.5713 2.7682
  endloop
 endfacet
 facet normal 0 -1 0
  outer loop
   vertex 45.6424 5.5713 2.5182
   vertex 45.6614 5.5713 2.5182
   vertex 45.6614 5.5713 2.7682
  endloop
 endfacet
 facet normal 0 -1 0
  outer loop
   vertex 45.6424 5.5713 2.5182
   vertex 45.6614 5.5713 2.7682
   vertex 45.6424 5.5713 2.7682
  endloop
 endfacet
endsolid zone0
