solid zone0
 facet normal 0 -0 -1
  outer loop
   vertex 23.4675 12.152 2.7682
   vertex 23.4675 11.552 2.7682
   vertex 23.3675 11.552 2.7682
  endloop
 endfacet
 facet normal -0 0 -1
  outer loop
   vertex 23.4675 12.152 2.7682
   vertex 23.3675 11.552 2.7682
   vertex 23.3675 12.152 2.7682
  endloop
 endfacet
 facet normal 1 0 0
  outer loop
   vertex 23.3675 11.552 2.5182
   vertex 23.3675 12.152 2.5182
   vertex 23.3675 12.152 2.7682
  endloop
 endfacet
 facet normal 1 0 0
  outer loop
   vertex 23.3675 11.552 2.5182
   vertex 23.3675 12.152 2.7682
   vertex 23.3675 11.552 2.7682
  endloop
 endfacet
 facet normal 0 1 0
  outer loop
   vertex 23.4675 11.552 2.5182
   vertex 23.3675 11.552 2.5182
   vertex 23.3675 11.552 2.7682
  endloop
 endfacet
 facet normal 0 1 -0
  outer loop
   vertex 23.4675 11.552 2.5182
   vertex 23.3675 11.552 2.7682
   vertex 23.4675 11.552 2.7682
  endloop
 endfacet
 facet normal -1 0 0
  outer loop
   vertex 23.4675 12.152 2.5182
   vertex 23.4675 11.552 2.5182
   vertex 23.4675 11.552 2.7682
  endloop
 endfacet
 facet normal -1 0 0
  outer loop
   vertex 23.4675 12.152 2.5182
   vertex 23.4675 11.552 2.7682
   vertex 23.4675 12.152 2.7682
  endloop
 endfacet
 facet normal 0 -1 0
  outer loop
   vertex 23.3675 12.152 2.5182
   vertex 23.4675 12.152 2.5182
   vertex 23.4675 12.152 2.7682
  endloop
 endfacet
 facet normal 0 -1 0
  outer loop
   vertex 23.3675 12.152 2.5182
   vertex 23.4675 12.152 2.7682
   vertex 23.3675 12.152 2.7682
  endloop
 endfacet
endsolid zone0
